<svg width="240" height="80" viewBox="0 0 240 80" fill="none" xmlns="http://www.w3.org/2000/svg">
<rect width="240" height="80" fill="#151514"/>
<path d="M2.26249 35.2865C2.34188 34.236 2.38157 32.9817 2.38157 31.5235V19.9521C2.17517 19.9521 1.83381 19.9913 1.3575 20.0697C0.881181 20.1481 0.460437 20.2265 0.0952628 20.3049L0 20.1638L0.547761 19.0584H4.5488V19.2935C4.46941 20.5949 4.42972 21.8493 4.42972 23.0566V34.628C4.63612 34.628 4.97748 34.5888 5.4538 34.5104C5.93011 34.4163 6.35086 34.3301 6.71603 34.2517L6.81129 34.3928L6.26353 35.5217H2.26249V35.2865Z" fill="#E9E9DB"/>
<path d="M10.7515 35.6628C10.3704 35.6628 10.045 35.5296 9.77505 35.263C9.50513 34.9965 9.37018 34.675 9.37018 34.2987C9.37018 33.9067 9.50513 33.5853 9.77505 33.3344C10.045 33.0679 10.3704 32.9346 10.7515 32.9346C11.1484 32.9346 11.4818 33.0679 11.7517 33.3344C12.0217 33.5853 12.1566 33.9067 12.1566 34.2987C12.1566 34.675 12.0217 34.9965 11.7517 35.263C11.4818 35.5296 11.1484 35.6628 10.7515 35.6628Z" fill="#E9E9DB"/>
<path d="M16.6124 35.2865C16.6441 34.8161 16.668 34.2909 16.6838 33.7107C16.7156 33.1149 16.7315 32.3858 16.7315 31.5235V19.9521C16.5251 19.9521 16.1837 19.9913 15.7074 20.0697C15.2311 20.1481 14.8103 20.2265 14.4452 20.3049L14.3499 20.1638L14.8977 19.0584H18.8987V19.2935C18.8828 19.905 18.859 20.5636 18.8272 21.2692C18.7955 21.8023 18.7796 22.3981 18.7796 23.0566V26.7491H21.3993L24.6145 22.939C25.0273 22.4373 25.4321 21.9355 25.8291 21.4338C26.226 20.932 26.607 20.4303 26.9722 19.9286C26.7976 19.9286 26.5674 19.9521 26.2816 19.9991C26.0117 20.0462 25.7338 20.0932 25.448 20.1402L24.6145 20.3049L24.5192 20.1638L25.067 19.0584H29.4014V19.27C29.0839 19.5836 28.7663 19.8972 28.4488 20.2108C28.1313 20.5087 27.8216 20.8145 27.52 21.128C27.2183 21.4573 26.9166 21.7866 26.615 22.1158C26.3133 22.4451 26.0275 22.7744 25.7576 23.1036L22.9235 26.4904L26.996 31.547C28.0439 32.8013 29.1712 34.0479 30.3779 35.2865V35.5217H25.186L24.6145 34.4163L24.7097 34.2752C24.8526 34.3066 25.0035 34.3379 25.1622 34.3693C25.3369 34.4006 25.5036 34.4398 25.6624 34.4869C25.9481 34.5496 26.2181 34.6123 26.4721 34.675C26.742 34.7377 26.9563 34.7691 27.1151 34.7691L21.4232 27.831H18.7796V31.5235C18.7796 32.182 18.7955 32.7778 18.8272 33.3109C18.859 34.0165 18.8828 34.675 18.8987 35.2865V35.5217H16.6124V35.2865Z" fill="#E9E9DB"/>
<path d="M35.5388 35.7804C34.2845 35.7804 33.316 35.4982 32.6333 34.9337C31.9506 34.3536 31.6092 33.601 31.6092 32.6759C31.6092 31.7979 31.8871 31.108 32.4428 30.6062C32.9985 30.1045 33.6812 29.7517 34.4909 29.5479C35.3165 29.3284 36.285 29.1794 37.3964 29.101C38.1585 29.0383 38.7777 28.9599 39.2541 28.8658C39.7304 28.7561 40.1035 28.5914 40.3734 28.3719C40.6433 28.1524 40.7783 27.8702 40.7783 27.5252C40.7783 26.6001 40.5242 25.8632 40.0162 25.3144C39.524 24.75 38.8651 24.4677 38.0395 24.4677C37.4044 24.4677 36.7852 24.6324 36.1818 24.9616C35.5785 25.2752 35.0307 25.7064 34.5385 26.2552C34.0464 26.804 33.6415 27.4233 33.3239 28.1132L33.3001 28.1367L32.4904 27.9486L33.8479 23.0096H34.9434L34.991 23.1036L34.3242 24.797C34.5147 24.7343 34.7767 24.6167 35.1101 24.4442C35.5706 24.162 36.031 23.9425 36.4914 23.7857C36.9519 23.6132 37.4996 23.527 38.1347 23.527C39.4525 23.527 40.4925 23.9503 41.2546 24.797C42.0326 25.6437 42.4215 26.7883 42.4215 28.2308V34.675C42.6121 34.675 43.144 34.5809 44.0172 34.3928C44.0648 34.3771 44.1125 34.3693 44.1601 34.3693C44.2077 34.3536 44.2474 34.3379 44.2792 34.3222L44.3744 34.4634L43.9219 35.5217H40.7068V35.2865C40.7227 35.0513 40.7306 34.8083 40.7306 34.5574C40.7465 34.2909 40.7544 34.0322 40.7544 33.7813C40.7703 33.6088 40.7783 33.4442 40.7783 33.2874C40.7783 33.1306 40.7783 32.9738 40.7783 32.817C40.3972 33.7264 39.7304 34.4477 38.7777 34.9808C37.8251 35.5139 36.7455 35.7804 35.5388 35.7804ZM36.0151 34.7221C36.8884 34.7221 37.6902 34.5339 38.4205 34.1576C39.1509 33.7656 39.7224 33.2325 40.1352 32.5583C40.5639 31.8841 40.7783 31.1393 40.7783 30.324L40.8021 29.0304C40.5322 29.2656 40.1352 29.4616 39.6113 29.6184C39.0873 29.7595 38.484 29.8615 37.8013 29.9242C36.3088 30.0496 35.1974 30.3162 34.4671 30.7238C33.7526 31.1315 33.3954 31.7587 33.3954 32.6053C33.3954 33.2796 33.6335 33.8048 34.1099 34.1811C34.5862 34.5418 35.2213 34.7221 36.0151 34.7221Z" fill="#E9E9DB"/>
<path d="M47.4163 35.2865C47.4798 33.8597 47.5116 32.6053 47.5116 31.5235V24.6089C47.2417 24.6089 46.7098 24.6951 45.9159 24.8676L45.6302 24.9381L45.5587 24.797L45.9874 23.7622H51.6793C53.1877 23.7622 54.3705 24.0366 55.2279 24.5853C56.1011 25.1184 56.5377 25.8475 56.5377 26.7726C56.5377 27.4625 56.3075 28.0505 55.8471 28.5365C55.4025 29.0069 54.7754 29.344 53.9657 29.5479C54.95 29.7203 55.7201 30.0574 56.2758 30.5592C56.8474 31.0609 57.1331 31.6959 57.1331 32.4642C57.1331 33.405 56.6806 34.1498 55.7756 34.6985C54.8706 35.2473 53.6402 35.5217 52.0842 35.5217H47.4163V35.2865ZM51.9175 34.6045C52.9813 34.6045 53.8148 34.4006 54.4181 33.993C55.0374 33.5853 55.347 33.0365 55.347 32.3466C55.347 31.6567 55.0294 31.108 54.3943 30.7003C53.7751 30.2926 52.9495 30.0888 51.9175 30.0888H49.2501V34.6045H51.9175ZM51.5603 29.1716C52.5764 29.1716 53.3703 28.9677 53.9418 28.5601C54.5293 28.1524 54.823 27.5958 54.823 26.8902C54.823 26.216 54.5293 25.6829 53.9418 25.2909C53.3703 24.8989 52.5764 24.7029 51.5603 24.7029H49.2501V29.1716H51.5603Z" fill="#E9E9DB"/>
<path d="M63.0525 35.7804C61.7982 35.7804 60.8297 35.4982 60.1469 34.9337C59.4642 34.3536 59.1229 33.601 59.1229 32.6759C59.1229 31.7979 59.4007 31.108 59.9564 30.6062C60.5121 30.1045 61.1948 29.7517 62.0046 29.5479C62.8302 29.3284 63.7987 29.1794 64.9101 29.101C65.6722 29.0383 66.2914 28.9599 66.7677 28.8658C67.244 28.7561 67.6171 28.5914 67.887 28.3719C68.157 28.1524 68.2919 27.8702 68.2919 27.5252C68.2919 26.6001 68.0379 25.8632 67.5298 25.3144C67.0376 24.75 66.3787 24.4677 65.5531 24.4677C64.918 24.4677 64.2988 24.6324 63.6955 24.9616C63.0922 25.2752 62.5444 25.7064 62.0522 26.2552C61.56 26.804 61.1551 27.4233 60.8376 28.1132L60.8138 28.1367L60.0041 27.9486L61.3615 23.0096H62.4571L62.5047 23.1036L61.8379 24.797C62.0284 24.7343 62.2904 24.6167 62.6238 24.4442C63.0842 24.162 63.5447 23.9425 64.0051 23.7857C64.4655 23.6132 65.0133 23.527 65.6484 23.527C66.9662 23.527 68.0061 23.9503 68.7682 24.797C69.5462 25.6437 69.9352 26.7883 69.9352 28.2308V34.675C70.1257 34.675 70.6576 34.5809 71.5309 34.3928C71.5785 34.3771 71.6261 34.3693 71.6738 34.3693C71.7214 34.3536 71.7611 34.3379 71.7928 34.3222L71.8881 34.4634L71.4356 35.5217H68.2205V35.2865C68.2364 35.0513 68.2443 34.8083 68.2443 34.5574C68.2602 34.2909 68.2681 34.0322 68.2681 33.7813C68.284 33.6088 68.2919 33.4442 68.2919 33.2874C68.2919 33.1306 68.2919 32.9738 68.2919 32.817C67.9109 33.7264 67.244 34.4477 66.2914 34.9808C65.3388 35.5139 64.2591 35.7804 63.0525 35.7804ZM63.5288 34.7221C64.402 34.7221 65.2038 34.5339 65.9342 34.1576C66.6645 33.7656 67.2361 33.2325 67.6489 32.5583C68.0776 31.8841 68.2919 31.1393 68.2919 30.324L68.3157 29.0304C68.0458 29.2656 67.6489 29.4616 67.1249 29.6184C66.601 29.7595 65.9977 29.8615 65.315 29.9242C63.8225 30.0496 62.7111 30.3162 61.9808 30.7238C61.2663 31.1315 60.909 31.7587 60.909 32.6053C60.909 33.2796 61.1472 33.8048 61.6235 34.1811C62.0998 34.5418 62.7349 34.7221 63.5288 34.7221Z" fill="#E9E9DB"/>
<path d="M72.5961 31.3588L73.4058 31.1472L73.4772 31.4529C73.6042 31.939 73.7551 32.3858 73.9297 32.7935C74.1044 33.1855 74.2949 33.4912 74.5013 33.7107C74.7077 33.9146 74.9221 34.0165 75.1443 34.0165C75.4301 34.0165 75.708 33.6794 75.9779 33.0052C76.2478 32.3153 76.4701 31.3588 76.6447 30.1358C76.8353 28.9129 76.9385 27.5331 76.9543 25.9965C76.9543 25.824 76.9464 25.6594 76.9305 25.5026C76.9146 25.3458 76.8988 25.189 76.8829 25.0322L76.8353 24.6089C76.4542 24.6245 75.8191 24.7343 74.93 24.9381L74.8585 24.797L75.3349 23.7622H83.1702C83.4243 23.7622 83.6942 23.7543 83.98 23.7387C84.2657 23.723 84.496 23.6995 84.6706 23.6681L84.6944 23.8563C84.615 24.9381 84.5753 26.2395 84.5753 27.7604V34.675C84.7341 34.675 84.9961 34.6437 85.3613 34.5809C85.7264 34.5026 86.0916 34.4163 86.4568 34.3222L86.5282 34.4634L86.0757 35.5217H82.7177V35.2865C82.7812 33.844 82.813 32.5897 82.813 31.5235V24.75H78.3118C78.2959 24.9068 78.2801 25.0636 78.2642 25.2204C78.2483 25.3772 78.2324 25.5339 78.2166 25.6907C78.0102 27.6193 77.772 29.3205 77.5021 30.7944C77.2322 32.2682 76.8908 33.4756 76.478 34.4163C76.0811 35.3414 75.6127 35.8039 75.0729 35.8039C74.93 35.8039 74.803 35.7569 74.6918 35.6628C74.5807 35.5688 74.4775 35.4512 74.3822 35.31C74.3663 35.2944 74.3505 35.2865 74.3346 35.2865C74.3187 35.2708 74.3028 35.2552 74.287 35.2395L74.8109 36.8388L74.7156 36.9564H73.6678L72.5961 31.3588Z" fill="#E9E9DB"/>
<path d="M97.5549 36.2038L98.2932 34.3458C98.1821 34.3928 98.0471 34.4555 97.8883 34.5339C97.7454 34.5966 97.5946 34.675 97.4358 34.7691C96.9913 35.067 96.5467 35.31 96.1022 35.4982C95.6576 35.6707 95.1098 35.7569 94.4589 35.7569C93.3157 35.7569 92.2758 35.4982 91.339 34.9808C90.4181 34.4477 89.6878 33.7186 89.148 32.7935C88.624 31.8684 88.362 30.8257 88.362 29.6655C88.362 28.5052 88.624 27.4625 89.148 26.5374C89.6878 25.5967 90.4181 24.8597 91.339 24.3266C92.2758 23.7935 93.3157 23.527 94.4589 23.527C95.6338 23.527 96.6737 23.7857 97.5787 24.3031C98.4837 24.8205 99.1903 25.5418 99.6983 26.4669C100.206 27.392 100.46 28.4425 100.46 29.6184C100.46 29.6968 100.46 29.7831 100.46 29.8771C100.46 29.9555 100.46 30.0261 100.46 30.0888H90.1959C90.2435 30.9982 90.4499 31.8135 90.8151 32.5348C91.1961 33.2404 91.6962 33.797 92.3155 34.2046C92.9505 34.5966 93.6571 34.7926 94.4351 34.7926C95.0701 34.7926 95.6973 34.628 96.3165 34.2987C96.9516 33.9695 97.5073 33.5539 97.9836 33.0522C98.4599 32.5505 98.8092 32.0566 99.0315 31.5705V31.547L99.9603 31.7822L98.7219 36.2978H97.6264L97.5549 36.2038ZM98.6266 29.148C98.5631 28.223 98.3488 27.4155 97.9836 26.7256C97.6343 26.02 97.15 25.4712 96.5308 25.0792C95.9275 24.6873 95.221 24.4913 94.4112 24.4913C93.6333 24.4913 92.9347 24.6951 92.3155 25.1028C91.6962 25.4947 91.1961 26.0435 90.8151 26.7491C90.4499 27.439 90.2435 28.2386 90.1959 29.148H98.6266Z" fill="#E9E9DB"/>
<path d="M104.188 39.9903C104.251 38.5792 104.283 37.3248 104.283 36.2273V24.6089C104.013 24.6089 103.481 24.6951 102.688 24.8676L102.402 24.9381L102.33 24.797L102.759 23.7622H104.45C104.688 23.7622 104.966 23.7543 105.283 23.7387C105.601 23.723 105.839 23.6995 105.998 23.6681L106.022 23.8563C106.006 24.0601 105.99 24.2718 105.974 24.4913C105.974 24.6951 105.974 24.8989 105.974 25.1028C105.958 25.3066 105.95 25.5183 105.95 25.7378C105.95 25.9573 105.942 26.1768 105.927 26.3963C106.339 25.5026 106.943 24.8049 107.736 24.3031C108.546 23.7857 109.475 23.527 110.523 23.527C111.571 23.527 112.508 23.7935 113.333 24.3266C114.175 24.8597 114.834 25.5967 115.31 26.5374C115.802 27.4625 116.048 28.4973 116.048 29.6419C116.048 30.8022 115.802 31.8449 115.31 32.77C114.834 33.6951 114.175 34.4242 113.333 34.9573C112.508 35.4904 111.571 35.7569 110.523 35.7569C109.491 35.7569 108.586 35.5139 107.808 35.0278C107.03 34.5261 106.443 33.8519 106.046 33.0052V39.3788C106.363 39.3788 106.99 39.2926 107.927 39.1201C108.07 39.0888 108.189 39.0653 108.284 39.0496L108.38 39.1907L107.832 40.2255H104.188V39.9903ZM110.07 34.675C110.848 34.675 111.547 34.4555 112.166 34.0165C112.785 33.5775 113.27 32.9817 113.619 32.229C113.984 31.4608 114.167 30.5984 114.167 29.6419C114.167 28.6855 113.984 27.8231 113.619 27.0548C113.27 26.2866 112.785 25.6907 112.166 25.2674C111.547 24.8284 110.848 24.6089 110.07 24.6089C109.292 24.6089 108.586 24.8362 107.951 25.2909C107.332 25.7456 106.847 26.3571 106.498 27.1254C106.149 27.8937 105.974 28.7325 105.974 29.6419C105.974 30.5984 106.149 31.4608 106.498 32.229C106.863 32.9817 107.355 33.5775 107.975 34.0165C108.61 34.4555 109.308 34.675 110.07 34.675Z" fill="#E9E9DB"/>
<path d="M119.747 35.2865C119.811 33.8597 119.843 32.6053 119.843 31.5235V24.6089C119.573 24.6089 119.041 24.6951 118.247 24.8676L117.961 24.9381L117.89 24.797L118.318 23.7622H120.128C120.382 23.7622 120.66 23.7543 120.962 23.7387C121.264 23.723 121.51 23.6995 121.7 23.6681L121.724 23.8563C121.645 25.0479 121.605 26.3493 121.605 27.7604V34.675C121.843 34.675 122.343 34.5888 123.105 34.4163L123.462 34.3222L123.534 34.4634L123.105 35.5217H119.747V35.2865ZM121.891 18L120.724 22.0923H120.486L119.319 18H121.891Z" fill="#E9E9DB"/>
<path d="M123.983 38.344L124.579 34.2282L124.698 34.2046C124.761 34.236 124.833 34.2674 124.912 34.2987C124.992 34.3144 125.079 34.3379 125.174 34.3693C125.301 34.385 125.428 34.4085 125.555 34.4398C125.698 34.4555 125.849 34.4712 126.008 34.4869C126.452 33.1855 126.818 31.7351 127.103 30.1358C127.405 28.5209 127.556 27.2665 127.556 26.3728C127.556 26.169 127.548 25.9573 127.532 25.7378C127.516 25.5183 127.5 25.3066 127.484 25.1028C127.469 25.0087 127.453 24.9224 127.437 24.8441C127.437 24.75 127.437 24.6716 127.437 24.6089C127.294 24.6089 127.095 24.6324 126.841 24.6794C126.603 24.7108 126.357 24.7578 126.103 24.8205C126.008 24.8362 125.913 24.8597 125.817 24.8911C125.738 24.9068 125.659 24.9224 125.579 24.9381L125.508 24.797L125.96 23.7622H133.343C133.676 23.7622 134.073 23.7543 134.534 23.7387C135.01 23.723 135.367 23.6995 135.606 23.6681L135.629 23.8563C135.566 25.0949 135.534 26.3963 135.534 27.7604V31.3118C135.534 31.8449 135.534 32.3858 135.534 32.9346C135.55 33.4677 135.574 34.0087 135.606 34.5574H136.582L136.511 33.9695V33.9224L137.201 33.8989L137.82 38.2734L136.915 38.391L136.677 37.3092C136.598 36.9172 136.455 36.5879 136.249 36.3214C136.058 36.0548 135.82 35.851 135.534 35.7099C135.248 35.5844 134.939 35.5217 134.605 35.5217H127.437C127.072 35.5217 126.73 35.6001 126.413 35.7569C126.111 35.9137 125.841 36.1254 125.603 36.3919C125.381 36.6585 125.214 36.9642 125.103 37.3092L124.841 38.4616L123.983 38.344ZM133.772 24.7265H128.985C128.985 24.8049 128.977 24.8754 128.961 24.9381C128.961 24.9852 128.961 25.0479 128.961 25.1263C128.755 26.9608 128.493 28.6463 128.175 30.1829C127.873 31.7195 127.5 33.162 127.056 34.5104C127.214 34.5261 127.389 34.5418 127.58 34.5574C127.786 34.5574 127.992 34.5574 128.199 34.5574H133.772V24.7265Z" fill="#E9E9DB"/>
<path d="M138.964 31.0061L139.797 30.7709L140.012 31.3118C140.218 31.8606 140.591 32.4094 141.131 32.9581C141.671 33.4912 142.282 33.9459 142.965 34.3222C143.663 34.6829 144.314 34.8632 144.918 34.8632C145.823 34.8632 146.545 34.6358 147.085 34.1811C147.625 33.7107 147.895 33.1149 147.895 32.3937C147.895 31.7038 147.649 31.1472 147.156 30.7238C146.68 30.3005 146.045 30.0888 145.251 30.0888H145.037V31.8292H144.322L143.798 27.831H145.037V29.1951H145.227C145.64 29.1951 146.021 29.0932 146.37 28.8893C146.72 28.6855 146.99 28.4111 147.18 28.0662C147.387 27.7055 147.49 27.3136 147.49 26.8902C147.49 26.1533 147.26 25.5575 146.799 25.1028C146.355 24.6481 145.743 24.4207 144.965 24.4207C144.362 24.4207 143.727 24.5932 143.06 24.9381C142.409 25.2674 141.814 25.6986 141.274 26.2317C140.75 26.7648 140.361 27.3214 140.107 27.9015L140.035 28.0191L139.345 27.8075L140.607 23.2683H141.679L141.75 23.3624L141.202 24.7735C141.298 24.7265 141.401 24.6716 141.512 24.6089C141.639 24.5461 141.766 24.4834 141.893 24.4207C142.385 24.1385 142.869 23.919 143.346 23.7622C143.838 23.5897 144.433 23.5035 145.132 23.5035C145.942 23.5035 146.656 23.6446 147.275 23.9268C147.91 24.209 148.403 24.5932 148.752 25.0792C149.101 25.5496 149.276 26.0906 149.276 26.7021C149.276 27.3763 149.054 27.9721 148.609 28.4895C148.165 28.9912 147.569 29.3597 146.823 29.5949C147.696 29.7517 148.403 30.0888 148.943 30.6062C149.482 31.1236 149.752 31.743 149.752 32.4642C149.752 33.1071 149.538 33.6872 149.109 34.2046C148.681 34.7064 148.101 35.0984 147.371 35.3806C146.656 35.6471 145.862 35.7804 144.989 35.7804C144.243 35.7804 143.608 35.6863 143.084 35.4982C142.56 35.2944 142.068 35.0435 141.607 34.7456C141.48 34.6829 141.353 34.6201 141.226 34.5574C141.115 34.4947 141.004 34.4477 140.893 34.4163L141.536 36.0156L141.488 36.1332H140.416L138.964 31.0061Z" fill="#E9E9DB"/>
<path d="M161.094 36.2038L161.833 34.3458C161.722 34.3928 161.587 34.4555 161.428 34.5339C161.285 34.5966 161.134 34.675 160.975 34.7691C160.531 35.067 160.086 35.31 159.642 35.4982C159.197 35.6707 158.649 35.7569 157.998 35.7569C156.855 35.7569 155.815 35.4982 154.879 34.9808C153.958 34.4477 153.227 33.7186 152.688 32.7935C152.164 31.8684 151.902 30.8257 151.902 29.6655C151.902 28.5052 152.164 27.4625 152.688 26.5374C153.227 25.5967 153.958 24.8597 154.879 24.3266C155.815 23.7935 156.855 23.527 157.998 23.527C159.173 23.527 160.213 23.7857 161.118 24.3031C162.023 24.8205 162.73 25.5418 163.238 26.4669C163.746 27.392 164 28.4425 164 29.6184C164 29.6968 164 29.7831 164 29.8771C164 29.9555 164 30.0261 164 30.0888H153.735C153.783 30.9982 153.989 31.8135 154.355 32.5348C154.736 33.2404 155.236 33.797 155.855 34.2046C156.49 34.5966 157.197 34.7926 157.975 34.7926C158.61 34.7926 159.237 34.628 159.856 34.2987C160.491 33.9695 161.047 33.5539 161.523 33.0522C161.999 32.5505 162.349 32.0566 162.571 31.5705V31.547L163.5 31.7822L162.261 36.2978H161.166L161.094 36.2038ZM162.166 29.148C162.103 28.223 161.888 27.4155 161.523 26.7256C161.174 26.02 160.69 25.4712 160.07 25.0792C159.467 24.6873 158.761 24.4913 157.951 24.4913C157.173 24.4913 156.474 24.6951 155.855 25.1028C155.236 25.4947 154.736 26.0435 154.355 26.7491C153.989 27.439 153.783 28.2386 153.735 29.148H162.166Z" fill="#E9E9DB"/>
<path d="M14.7128 58.721C14.8058 58.2088 14.8756 57.7149 14.9222 57.2393C14.978 56.7637 15.0059 56.2012 15.0059 55.5518V52.7668C14.9035 52.721 14.7965 52.6799 14.6849 52.6433C14.5732 52.5976 14.4522 52.561 14.3219 52.5335C14.2661 52.5152 14.2056 52.5015 14.1405 52.4924C14.0846 52.4832 14.0241 52.4741 13.959 52.4649L14.0986 51.9848H14.5732C14.8803 51.9848 15.1827 51.9756 15.4805 51.9573C15.7876 51.939 16.0528 51.9207 16.2762 51.9024L16.332 51.9299C16.5647 52.5061 16.8764 53.1921 17.2673 53.9878C17.3045 54.0701 17.3417 54.1524 17.379 54.2347C17.4162 54.3079 17.4534 54.3811 17.4906 54.4543L18.8726 57.2668L21.469 51.9848H21.8459C21.9948 51.9848 22.1576 51.9802 22.3344 51.971C22.5113 51.9619 22.6555 51.9482 22.7672 51.9299L22.7811 52.0396C22.7346 52.6799 22.7113 53.439 22.7113 54.3171V58.3506C22.823 58.3506 23.1348 58.2957 23.6466 58.186C23.6745 58.1768 23.7024 58.1722 23.7303 58.1722C23.7583 58.1631 23.7862 58.1539 23.8141 58.1448L23.856 58.2271L23.5908 58.8445H21.6225V58.7073C21.6318 58.5152 21.6411 58.3232 21.6504 58.1311C21.6597 57.939 21.6644 57.7515 21.6644 57.5686C21.6737 57.3582 21.6784 57.0427 21.6784 56.6219V52.8079L18.747 58.8445H18.5515L15.7457 53.2607C15.7364 53.2332 15.7225 53.2104 15.7039 53.1921C15.6946 53.1646 15.6806 53.1418 15.662 53.1235C15.6527 53.1052 15.6387 53.0869 15.6201 53.0686C15.6015 53.0412 15.5782 53.0229 15.5503 53.0137V58.3643C15.6899 58.3552 15.8528 58.3323 16.0389 58.2957C16.2622 58.25 16.4437 58.2134 16.5833 58.186L16.6252 58.2683L16.3879 58.8445H14.7128V58.721Z" fill="#727263"/>
<path d="M26.2893 59.0777L26.75 58.9405L26.7779 59.0366L26.8617 59.2286C27.0106 59.5488 27.2013 59.8552 27.434 60.1478C27.6666 60.4405 27.9132 60.6783 28.1738 60.8612C28.4344 61.0442 28.6717 61.1356 28.8857 61.1356C29.137 61.1356 29.3371 61.0488 29.486 60.875C29.6442 60.7103 29.7233 60.4908 29.7233 60.2164V59.8323C29.7233 59.6128 29.686 59.3795 29.6116 59.1326C29.5465 58.8948 29.4208 58.5975 29.2347 58.2408C29.2254 58.2225 29.2161 58.2042 29.2068 58.186C29.2068 58.1585 29.1975 58.1357 29.1789 58.1174L27.6154 55.0716C27.1594 54.1662 26.7174 53.3384 26.2893 52.5884L25.9962 52.0808V51.9848H28.4251L28.6763 52.5473L28.6345 52.6433C28.4763 52.5976 28.2762 52.561 28.0342 52.5335C27.8016 52.497 27.6247 52.4787 27.5038 52.4787L29.9327 57.5C29.9606 57.5457 29.9838 57.5914 30.0024 57.6372C30.0211 57.6829 30.0397 57.7332 30.0583 57.7881C30.0862 57.843 30.1048 57.8978 30.1141 57.9527C30.1327 57.9985 30.1513 58.0488 30.17 58.1036C30.1793 58.0579 30.1886 58.0122 30.1979 57.9664C30.2165 57.9207 30.2351 57.875 30.2537 57.8292C30.2723 57.7744 30.2909 57.7195 30.3095 57.6646C30.3282 57.6006 30.3468 57.5366 30.3654 57.4725L31.5659 54.468C31.6589 54.2393 31.7892 53.8643 31.9567 53.343C32.0126 53.1784 32.0591 53.0229 32.0963 52.8765C32.1428 52.721 32.1801 52.5884 32.208 52.4787C32.0963 52.4787 31.9241 52.497 31.6915 52.5335C31.4682 52.5701 31.2727 52.6113 31.1052 52.657L31.0494 52.5747L31.3146 51.9848H33.2689V52.1082C33.1014 52.4101 32.9478 52.721 32.8082 53.0412C32.5849 53.5168 32.3801 53.9832 32.194 54.4405L30.7423 58.0076C30.6585 58.2088 30.598 58.4009 30.5608 58.5838C30.5236 58.7576 30.505 58.9451 30.505 59.1463V59.7088C30.505 60.3399 30.3514 60.8338 30.0443 61.1905C29.7465 61.5472 29.3603 61.7256 28.8857 61.7256C28.6345 61.7256 28.4111 61.6798 28.2157 61.5884C28.0296 61.5061 27.8527 61.3917 27.6852 61.2454C27.527 61.1448 27.4107 61.0808 27.3363 61.0533L27.6852 61.9451L27.6434 62H27.0431L26.2893 59.0777Z" fill="#727263"/>
<path d="M35.6701 56.2104L36.1586 56.0732L36.2843 56.3887C36.4052 56.7088 36.6239 57.0289 36.9403 57.3491C37.2567 57.66 37.615 57.9253 38.0152 58.1448C38.4247 58.3552 38.8062 58.4603 39.1598 58.4603C39.6903 58.4603 40.1137 58.3277 40.4301 58.0625C40.7465 57.7881 40.9047 57.4405 40.9047 57.0198C40.9047 56.6174 40.7605 56.2927 40.472 56.0457C40.1928 55.7988 39.8206 55.6753 39.3553 55.6753H39.2296V56.6905H38.8109L38.5038 54.3582H39.2296V55.154H39.3413C39.5833 55.154 39.8066 55.0945 40.0113 54.9756C40.2161 54.8567 40.3743 54.6966 40.4859 54.4954C40.6069 54.2851 40.6674 54.0564 40.6674 53.8094C40.6674 53.3796 40.5325 53.032 40.2626 52.7668C40.002 52.5015 39.6437 52.3689 39.1877 52.3689C38.8341 52.3689 38.4619 52.4695 38.071 52.6707C37.6895 52.8628 37.3405 53.1143 37.0241 53.4253C36.717 53.7363 36.489 54.061 36.3401 54.3994L36.2982 54.468L35.8934 54.3445L36.6332 51.6966H37.2614L37.3033 51.7515L36.9822 52.5747C37.038 52.5473 37.0985 52.5152 37.1637 52.4787C37.2381 52.4421 37.3126 52.4055 37.387 52.3689C37.6755 52.2043 37.9593 52.0762 38.2385 51.9848C38.527 51.8841 38.876 51.8338 39.2855 51.8338C39.7601 51.8338 40.1788 51.9162 40.5418 52.0808C40.914 52.2454 41.2025 52.4695 41.4072 52.753C41.612 53.0274 41.7143 53.343 41.7143 53.6997C41.7143 54.093 41.5841 54.4405 41.3235 54.7424C41.0629 55.0351 40.7139 55.25 40.2766 55.3872C40.7884 55.4786 41.2025 55.6753 41.5189 55.9771C41.8353 56.279 41.9935 56.6402 41.9935 57.061C41.9935 57.436 41.8679 57.7744 41.6166 58.0762C41.3654 58.3689 41.0257 58.5975 40.5976 58.7622C40.1788 58.9177 39.7135 58.9954 39.2017 58.9954C38.7643 58.9954 38.3921 58.9405 38.085 58.8308C37.7779 58.7119 37.4894 58.5655 37.2195 58.3917C37.1451 58.3552 37.0706 58.3186 36.9962 58.282C36.931 58.2454 36.8659 58.218 36.8007 58.1997L37.1776 59.1326L37.1497 59.2012H36.5216L35.6701 56.2104Z" fill="#727263"/>
<path d="M50.3166 59.2424L50.7494 58.1585C50.6842 58.186 50.6051 58.2225 50.5121 58.2683C50.4283 58.3049 50.3399 58.3506 50.2468 58.4055C49.9863 58.5792 49.7257 58.721 49.4651 58.8308C49.2046 58.9314 48.8835 58.9817 48.5019 58.9817C47.8319 58.9817 47.2224 58.8308 46.6733 58.5289C46.1336 58.218 45.7055 57.7927 45.3891 57.253C45.082 56.7134 44.9284 56.1052 44.9284 55.4283C44.9284 54.7515 45.082 54.1433 45.3891 53.6037C45.7055 53.0549 46.1336 52.625 46.6733 52.314C47.2224 52.0031 47.8319 51.8476 48.5019 51.8476C49.1906 51.8476 49.8001 51.9985 50.3306 52.3003C50.861 52.6021 51.2752 53.0229 51.5729 53.5625C51.8707 54.1021 52.0196 54.7149 52.0196 55.4009C52.0196 55.4466 52.0196 55.4969 52.0196 55.5518C52.0196 55.5975 52.0196 55.6387 52.0196 55.6753H46.0033C46.0312 56.2058 46.1522 56.6814 46.3662 57.1021C46.5896 57.5137 46.8827 57.8384 47.2456 58.0762C47.6179 58.3049 48.032 58.4192 48.488 58.4192C48.8602 58.4192 49.2278 58.3232 49.5908 58.1311C49.963 57.939 50.2887 57.6966 50.5679 57.4039C50.8471 57.1113 51.0518 56.8232 51.1821 56.5396V56.5259L51.7265 56.6631L51.0006 59.2972H50.3585L50.3166 59.2424ZM50.9448 55.1265C50.9076 54.5869 50.7819 54.1158 50.5679 53.7134C50.3632 53.3018 50.0793 52.9817 49.7164 52.753C49.3628 52.5244 48.9486 52.4101 48.474 52.4101C48.018 52.4101 47.6086 52.529 47.2456 52.7668C46.8827 52.9954 46.5896 53.3155 46.3662 53.7271C46.1522 54.1296 46.0312 54.596 46.0033 55.1265H50.9448Z" fill="#727263"/>
<path d="M63.0824 58.2271L62.8172 58.8445H60.849V58.7073C60.8862 57.9482 60.9048 57.2164 60.9048 56.5122V53.0686L56.0889 59.1463H55.8795C55.9075 58.3506 55.9214 57.5549 55.9214 56.7591V52.4787C55.7725 52.4787 55.4608 52.529 54.9862 52.6296L54.8187 52.6707L54.7768 52.5884L55.028 51.9848H56.0889C56.2285 51.9848 56.3914 51.9802 56.5775 51.971C56.7729 51.9619 56.9172 51.9482 57.0102 51.9299L57.0242 52.0396C56.9777 52.6799 56.9544 53.439 56.9544 54.3171V57.1844L61.0444 51.9848H61.1282C61.2398 51.9848 61.3748 51.9802 61.533 51.971C61.6912 51.9619 61.8401 51.9482 61.9797 51.9299L61.9936 52.0396C61.9936 52.2134 61.989 52.3918 61.9797 52.5747C61.9797 52.7576 61.975 52.9451 61.9657 53.1372C61.9564 53.3293 61.9471 53.5259 61.9378 53.7271C61.9378 53.9283 61.9378 54.125 61.9378 54.3171V58.3506C62.0495 58.3506 62.3612 58.2957 62.873 58.186C62.901 58.1768 62.9289 58.1722 62.9568 58.1722C62.9847 58.1631 63.0126 58.1539 63.0406 58.1448L63.0824 58.2271ZM61.4632 48.5412C61.4632 49.0076 61.3562 49.4192 61.1421 49.7759C60.9374 50.1235 60.6442 50.3979 60.2627 50.5991C59.8811 50.7912 59.4391 50.8872 58.9366 50.8872C58.4341 50.8872 57.992 50.7912 57.6105 50.5991C57.2289 50.3979 56.9311 50.1235 56.7171 49.7759C56.5124 49.4192 56.41 49.0076 56.41 48.5412V48.4314L56.9823 48.3903V48.5275C56.9823 48.9939 57.1591 49.3689 57.5128 49.6524C57.8664 49.9268 58.341 50.064 58.9366 50.064C59.5322 50.064 60.0068 49.9268 60.3604 49.6524C60.7233 49.3689 60.9048 48.9939 60.9048 48.5275V48.3903L61.4632 48.4314V48.5412Z" fill="#727263"/>
<path d="M66.1715 54.3857H69.6753V55.0716H66.1715V54.3857Z" fill="#727263"/>
<path d="M73.6338 58.721C73.7268 58.2088 73.7966 57.7149 73.8431 57.2393C73.899 56.7637 73.9269 56.2012 73.9269 55.5518V52.7668C73.8245 52.721 73.7175 52.6799 73.6058 52.6433C73.4942 52.5976 73.3732 52.561 73.2429 52.5335C73.1871 52.5152 73.1266 52.5015 73.0614 52.4924C73.0056 52.4832 72.9451 52.4741 72.88 52.4649L73.0196 51.9848H73.4942C73.8013 51.9848 74.1037 51.9756 74.4015 51.9573C74.7086 51.939 74.9738 51.9207 75.1972 51.9024L75.253 51.9299C75.4857 52.5061 75.7974 53.1921 76.1883 53.9878C76.2255 54.0701 76.2627 54.1524 76.2999 54.2347C76.3372 54.3079 76.3744 54.3811 76.4116 54.4543L77.7936 57.2668L80.39 51.9848H80.7669C80.9157 51.9848 81.0786 51.9802 81.2554 51.971C81.4322 51.9619 81.5765 51.9482 81.6882 51.9299L81.7021 52.0396C81.6556 52.6799 81.6323 53.439 81.6323 54.3171V58.3506C81.744 58.3506 82.0557 58.2957 82.5676 58.186C82.5955 58.1768 82.6234 58.1722 82.6513 58.1722C82.6792 58.1631 82.7072 58.1539 82.7351 58.1448L82.777 58.2271L82.5117 58.8445H80.5435V58.7073C80.5528 58.5152 80.5621 58.3232 80.5714 58.1311C80.5807 57.939 80.5854 57.7515 80.5854 57.5686C80.5947 57.3582 80.5993 57.0427 80.5993 56.6219V52.8079L77.6679 58.8445H77.4725L74.6667 53.2607C74.6574 53.2332 74.6435 53.2104 74.6249 53.1921C74.6155 53.1646 74.6016 53.1418 74.583 53.1235C74.5737 53.1052 74.5597 53.0869 74.5411 53.0686C74.5225 53.0412 74.4992 53.0229 74.4713 53.0137V58.3643C74.6109 58.3552 74.7737 58.3323 74.9599 58.2957C75.1832 58.25 75.3647 58.2134 75.5043 58.186L75.5462 58.2683L75.3088 58.8445H73.6338V58.721Z" fill="#727263"/>
<path d="M87.723 58.9954C86.9878 58.9954 86.4201 58.8308 86.02 58.5015C85.6198 58.1631 85.4197 57.7241 85.4197 57.1844C85.4197 56.6722 85.5826 56.2698 85.9083 55.9771C86.234 55.6844 86.6341 55.4786 87.1087 55.3597C87.5927 55.2317 88.1603 55.1448 88.8118 55.0991C89.2585 55.0625 89.6214 55.0168 89.9006 54.9619C90.1798 54.8979 90.3984 54.8018 90.5566 54.6738C90.7149 54.5457 90.794 54.3811 90.794 54.1799C90.794 53.6402 90.6451 53.2104 90.3473 52.8902C90.0588 52.561 89.6726 52.3963 89.1887 52.3963C88.8164 52.3963 88.4535 52.4924 88.0999 52.6845C87.7462 52.8674 87.4252 53.1189 87.1367 53.439C86.8482 53.7591 86.6109 54.1204 86.4248 54.5229L86.4108 54.5366L85.9362 54.4268L86.7319 51.5457H87.374L87.4019 51.6006L87.011 52.5884C87.1227 52.5518 87.2763 52.4832 87.4717 52.3826C87.7416 52.218 88.0114 52.0899 88.2813 51.9985C88.5512 51.8979 88.8723 51.8476 89.2445 51.8476C90.0169 51.8476 90.6264 52.0945 91.0731 52.5884C91.5291 53.0823 91.7571 53.75 91.7571 54.5915V58.3506C91.8688 58.3506 92.1805 58.2957 92.6924 58.186C92.7203 58.1768 92.7482 58.1722 92.7761 58.1722C92.8041 58.1631 92.8273 58.1539 92.8459 58.1448L92.9018 58.2271L92.6366 58.8445H90.7521V58.7073C90.7614 58.5701 90.766 58.4283 90.766 58.282C90.7753 58.1265 90.78 57.9756 90.78 57.8292C90.7893 57.7286 90.794 57.6326 90.794 57.5411C90.794 57.4497 90.794 57.3582 90.794 57.2668C90.5706 57.7972 90.1798 58.218 89.6214 58.5289C89.063 58.8399 88.4302 58.9954 87.723 58.9954ZM88.0021 58.378C88.514 58.378 88.9839 58.2683 89.412 58.0488C89.8401 57.8201 90.1751 57.5091 90.4171 57.1158C90.6683 56.7225 90.794 56.2881 90.794 55.8125L90.8079 55.0579C90.6497 55.1951 90.4171 55.3094 90.11 55.4009C89.8029 55.4832 89.4492 55.5427 89.0491 55.5793C88.1743 55.6524 87.5229 55.8079 87.0948 56.0457C86.676 56.2835 86.4666 56.6494 86.4666 57.1433C86.4666 57.5366 86.6062 57.843 86.8854 58.0625C87.1646 58.2728 87.5368 58.378 88.0021 58.378Z" fill="#727263"/>
<path d="M103.563 58.2271L103.297 58.8445H101.329V58.7073C101.366 57.9482 101.385 57.2164 101.385 56.5122V53.0686L96.5692 59.1463H96.3598C96.3877 58.3506 96.4017 57.5549 96.4017 56.7591V52.4787C96.2528 52.4787 95.941 52.529 95.4664 52.6296L95.2989 52.6707L95.257 52.5884L95.5083 51.9848H96.5692C96.7088 51.9848 96.8716 51.9802 97.0578 51.971C97.2532 51.9619 97.3974 51.9482 97.4905 51.9299L97.5045 52.0396C97.4579 52.6799 97.4347 53.439 97.4347 54.3171V57.1844L101.525 51.9848H101.608C101.72 51.9848 101.855 51.9802 102.013 51.971C102.171 51.9619 102.32 51.9482 102.46 51.9299L102.474 52.0396C102.474 52.2134 102.469 52.3918 102.46 52.5747C102.46 52.7576 102.455 52.9451 102.446 53.1372C102.437 53.3293 102.427 53.5259 102.418 53.7271C102.418 53.9283 102.418 54.125 102.418 54.3171V58.3506C102.53 58.3506 102.841 58.2957 103.353 58.186C103.381 58.1768 103.409 58.1722 103.437 58.1722C103.465 58.1631 103.493 58.1539 103.521 58.1448L103.563 58.2271ZM101.943 48.5412C101.943 49.0076 101.836 49.4192 101.622 49.7759C101.418 50.1235 101.125 50.3979 100.743 50.5991C100.361 50.7912 99.9194 50.8872 99.4169 50.8872C98.9143 50.8872 98.4723 50.7912 98.0907 50.5991C97.7092 50.3979 97.4114 50.1235 97.1974 49.7759C96.9926 49.4192 96.8903 49.0076 96.8903 48.5412V48.4314L97.4626 48.3903V48.5275C97.4626 48.9939 97.6394 49.3689 97.993 49.6524C98.3467 49.9268 98.8213 50.064 99.4169 50.064C100.012 50.064 100.487 49.9268 100.841 49.6524C101.204 49.3689 101.385 48.9939 101.385 48.5275V48.3903L101.943 48.4314V48.5412Z" fill="#727263"/>
<path d="M112.431 54.6463C112.263 54.2622 112.04 53.9009 111.761 53.5625C111.482 53.2241 111.165 52.9543 110.812 52.753C110.458 52.5427 110.09 52.4375 109.709 52.4375C109.281 52.4375 108.89 52.5655 108.536 52.8216C108.192 53.0777 107.917 53.4344 107.713 53.8918C107.517 54.3399 107.42 54.8476 107.42 55.4146C107.42 55.9817 107.522 56.4939 107.727 56.9512C107.931 57.4085 108.215 57.7652 108.578 58.0213C108.941 58.2774 109.346 58.4055 109.793 58.4055C110.183 58.4055 110.556 58.2957 110.909 58.0762C111.272 57.8475 111.593 57.564 111.873 57.2256C112.152 56.878 112.366 56.5213 112.515 56.1555L113.059 56.3064L112.235 59.2972H111.565L111.537 59.2424L111.998 58.1585C111.859 58.2042 111.682 58.2911 111.468 58.4192C111.216 58.5838 110.956 58.721 110.686 58.8308C110.416 58.9314 110.1 58.9817 109.737 58.9817C109.085 58.9817 108.499 58.8308 107.978 58.5289C107.466 58.218 107.061 57.7927 106.763 57.253C106.466 56.7043 106.317 56.0869 106.317 55.4009C106.317 54.7332 106.466 54.1296 106.763 53.5899C107.061 53.0412 107.466 52.6159 107.978 52.314C108.49 52.0031 109.067 51.8476 109.709 51.8476C110.109 51.8476 110.449 51.9024 110.728 52.0122C111.016 52.1128 111.282 52.2454 111.524 52.4101C111.598 52.4558 111.668 52.497 111.733 52.5335C111.798 52.5701 111.854 52.593 111.9 52.6021L111.496 51.6143L111.537 51.5595H112.194L112.961 54.4954L112.431 54.6463Z" fill="#727263"/>
<path d="M118.303 58.7073C118.34 57.9482 118.359 57.2164 118.359 56.5122V52.4924H118.275C117.763 52.4924 117.34 52.5335 117.005 52.6159C116.67 52.6982 116.405 52.8125 116.209 52.9588C116.014 53.1052 115.86 53.2698 115.748 53.4527L115.679 53.6037L115.246 53.439L116.042 51.1616H116.767L116.795 51.189L116.279 51.9848H121.514L120.997 51.189L121.011 51.1616H121.751L122.547 53.439L122.114 53.6037L122.044 53.4527C121.932 53.2698 121.774 53.1052 121.569 52.9588C121.374 52.8125 121.104 52.6982 120.76 52.6159C120.425 52.5335 120.001 52.4924 119.489 52.4924H119.392V58.3506C119.513 58.3506 119.717 58.3277 120.006 58.282C120.294 58.2363 120.546 58.1905 120.76 58.1448L120.816 58.2271L120.508 58.8445H118.303V58.7073Z" fill="#727263"/>
<path d="M130.187 59.2424L130.619 58.1585C130.554 58.186 130.475 58.2225 130.382 58.2683C130.298 58.3049 130.21 58.3506 130.117 58.4055C129.856 58.5792 129.596 58.721 129.335 58.8308C129.075 58.9314 128.753 58.9817 128.372 58.9817C127.702 58.9817 127.092 58.8308 126.543 58.5289C126.004 58.218 125.575 57.7927 125.259 57.253C124.952 56.7134 124.798 56.1052 124.798 55.4283C124.798 54.7515 124.952 54.1433 125.259 53.6037C125.575 53.0549 126.004 52.625 126.543 52.314C127.092 52.0031 127.702 51.8476 128.372 51.8476C129.061 51.8476 129.67 51.9985 130.201 52.3003C130.731 52.6021 131.145 53.0229 131.443 53.5625C131.741 54.1021 131.89 54.7149 131.89 55.4009C131.89 55.4466 131.89 55.4969 131.89 55.5518C131.89 55.5975 131.89 55.6387 131.89 55.6753H125.873C125.901 56.2058 126.022 56.6814 126.236 57.1021C126.46 57.5137 126.753 57.8384 127.116 58.0762C127.488 58.3049 127.902 58.4192 128.358 58.4192C128.73 58.4192 129.098 58.3232 129.461 58.1311C129.833 57.939 130.159 57.6966 130.438 57.4039C130.717 57.1113 130.922 56.8232 131.052 56.5396V56.5259L131.596 56.6631L130.871 59.2972H130.228L130.187 59.2424ZM130.815 55.1265C130.778 54.5869 130.652 54.1158 130.438 53.7134C130.233 53.3018 129.949 52.9817 129.586 52.753C129.233 52.5244 128.819 52.4101 128.344 52.4101C127.888 52.4101 127.479 52.529 127.116 52.7668C126.753 52.9954 126.46 53.3155 126.236 53.7271C126.022 54.1296 125.901 54.596 125.873 55.1265H130.815Z" fill="#727263"/>
<path d="M135.75 61.4512C135.787 60.628 135.805 59.8963 135.805 59.2561V52.4787C135.647 52.4787 135.335 52.529 134.87 52.6296L134.703 52.6707L134.661 52.5884L134.912 51.9848H135.903C136.043 51.9848 136.206 51.9802 136.392 51.971C136.578 51.9619 136.717 51.9482 136.81 51.9299L136.824 52.0396C136.815 52.1585 136.806 52.282 136.796 52.4101C136.796 52.529 136.796 52.6479 136.796 52.7668C136.787 52.8857 136.782 53.0091 136.782 53.1372C136.782 53.2652 136.778 53.3933 136.769 53.5213C137.01 53 137.364 52.593 137.829 52.3003C138.304 51.9985 138.848 51.8476 139.463 51.8476C140.077 51.8476 140.626 52.0031 141.11 52.314C141.603 52.625 141.989 53.0549 142.268 53.6037C142.557 54.1433 142.701 54.7469 142.701 55.4146C142.701 56.0915 142.557 56.6997 142.268 57.2393C141.989 57.7789 141.603 58.2042 141.11 58.5152C140.626 58.8262 140.077 58.9817 139.463 58.9817C138.858 58.9817 138.327 58.8399 137.871 58.5564C137.415 58.2637 137.071 57.8704 136.838 57.3765V61.0945C137.024 61.0945 137.392 61.0442 137.941 60.9436C138.025 60.9253 138.095 60.9116 138.15 60.9024L138.206 60.9847L137.885 61.5884H135.75V61.4512ZM139.197 58.3506C139.653 58.3506 140.063 58.2225 140.426 57.9664C140.789 57.7103 141.073 57.3628 141.277 56.9238C141.491 56.4756 141.598 55.9725 141.598 55.4146C141.598 54.8567 141.491 54.3537 141.277 53.9055C141.073 53.4573 140.789 53.1098 140.426 52.8628C140.063 52.6067 139.653 52.4787 139.197 52.4787C138.741 52.4787 138.327 52.6113 137.955 52.8765C137.592 53.1418 137.308 53.4985 137.104 53.9466C136.899 54.3948 136.796 54.8841 136.796 55.4146C136.796 55.9725 136.899 56.4756 137.104 56.9238C137.318 57.3628 137.606 57.7103 137.969 57.9664C138.341 58.2225 138.751 58.3506 139.197 58.3506Z" fill="#727263"/>
<path d="M153.761 58.2271L153.496 58.8445H151.528V58.7073C151.556 58.0579 151.57 57.3262 151.57 56.5122V55.7165H147.633V56.5122C147.633 57.2805 147.652 58.0122 147.689 58.7073V58.8445H146.544V58.7073C146.582 57.875 146.6 57.1433 146.6 56.5122V52.4787C146.442 52.4787 146.13 52.529 145.665 52.6296L145.497 52.6707L145.456 52.5884L145.707 51.9848H146.768C146.907 51.9848 147.07 51.9802 147.256 51.971C147.452 51.9619 147.596 51.9482 147.689 51.9299L147.703 52.0396C147.656 52.7622 147.633 53.5213 147.633 54.3171V55.1128H151.57V53.8506C151.57 53.1555 151.551 52.5701 151.514 52.0945V51.9848H151.765C151.905 51.9848 152.068 51.9802 152.254 51.971C152.449 51.9619 152.584 51.9482 152.658 51.9299L152.686 52.0396C152.64 52.6159 152.617 53.375 152.617 54.3171V58.3506C152.728 58.3506 153.04 58.2957 153.552 58.186C153.58 58.1768 153.608 58.1722 153.636 58.1722C153.663 58.1631 153.691 58.1539 153.719 58.1448L153.761 58.2271Z" fill="#727263"/>
<path d="M155.915 58.7073C155.943 58.6799 155.971 58.657 155.999 58.6387C156.027 58.6113 156.055 58.5838 156.083 58.5564C156.576 58.0716 156.976 57.6418 157.283 57.2668L158.442 55.7713C157.902 55.625 157.492 55.4009 157.213 55.0991C156.934 54.7881 156.794 54.4131 156.794 53.9741C156.794 53.343 157.055 52.8537 157.576 52.5061C158.107 52.1585 158.879 51.9848 159.893 51.9848H161.289C161.438 51.9848 161.601 51.9802 161.778 51.971C161.964 51.9619 162.104 51.9482 162.197 51.9299L162.225 52.0396C162.178 52.6159 162.155 53.375 162.155 54.3171V58.3506C162.266 58.3506 162.578 58.2957 163.09 58.186C163.118 58.1768 163.146 58.1722 163.174 58.1722C163.202 58.1631 163.23 58.1539 163.258 58.1448L163.299 58.2271L163.034 58.8445H161.066V58.7073C161.103 57.9939 161.122 57.2622 161.122 56.5122V55.9771H160.005C159.912 55.9771 159.819 55.9771 159.726 55.9771C159.633 55.968 159.54 55.9588 159.447 55.9497L157.52 58.4055C157.623 58.4055 157.837 58.3735 158.162 58.3094C158.256 58.2911 158.344 58.2728 158.428 58.2546C158.511 58.2363 158.591 58.2225 158.665 58.2134L158.707 58.282L158.428 58.8445H155.929L155.915 58.7073ZM161.122 55.4421V52.4924H159.963C159.284 52.4924 158.758 52.6204 158.386 52.8765C158.023 53.1326 157.841 53.4939 157.841 53.9604C157.841 54.436 158.023 54.8018 158.386 55.0579C158.758 55.314 159.284 55.4421 159.963 55.4421H161.122Z" fill="#727263"/>
<path fill-rule="evenodd" clip-rule="evenodd" d="M174.15 32.8336L174.101 31.7166L173.904 30.7291C174.852 30.2812 175.525 30.1137 176.563 29.8551L176.563 29.8551L176.563 29.8551L176.564 29.8549C176.668 29.829 176.776 29.8022 176.888 29.774C176.656 28.7676 176.562 28.1246 176.396 26.9734V23.7519L177.396 22.6673C177.286 22.1363 177.283 21.9013 177.396 21.5988C177.862 21.2829 177.997 21.0248 177.855 20.3199C178.561 19.7526 178.728 19.3807 178.675 18.6525C178.894 17.8058 179.133 17.4991 179.741 17.2117C180.318 16.7681 180.678 16.6628 181.348 16.5804C181.225 16.0869 181.312 15.8382 181.757 15.4472C181.932 14.0384 182.144 13.3062 183.676 12.5818C183.646 10.9511 185.286 11.8054 184.905 12.339C184.905 12.339 185.834 12.4557 186.233 13.0675C187.01 14.0568 187.105 14.6495 187.151 15.6738C188.038 16.4532 188.621 16.7198 189.725 17.066C190.033 17.3182 190.117 17.4425 190.184 17.6488C190.745 17.9002 190.921 18.0756 191.02 18.4421C192.068 18.6796 192.59 18.916 193.185 19.8667C193.704 20.0029 193.972 20.1113 194.283 20.5304C194.887 20.6978 195.269 20.9286 196.005 21.5179L195.709 22.2787L195.168 21.6312C194.517 21.4497 194.174 21.2822 193.627 20.7894C192.792 20.58 192.541 20.2238 192.148 19.6676C192.113 19.6169 192.076 19.5646 192.037 19.5105C191.967 19.2694 191.546 19.1679 190.981 19.0318C190.848 18.9998 190.707 18.9658 190.561 18.9277C190.349 18.8442 190.215 18.7174 189.938 18.2964C189.437 18.1336 189.241 17.8315 188.906 17.2603C187.443 16.9032 186.999 16.4236 186.479 15.3663C184.948 15.7537 184.125 15.7597 182.708 15.4958C182.585 15.9173 182.485 16.1042 182.184 16.3052C182.177 17.2131 181.459 17.56 180.226 18.1549L180.134 18.1992C179.572 19.492 179.256 20.1501 178.675 20.6923C178.671 21.3233 178.543 21.6112 178.052 21.9874C178.171 22.9842 177.835 23.4498 176.987 24.0757C176.994 26.2365 177.136 27.4492 177.396 29.6121L177.954 29.4341L177.478 24.3833C177.696 24.2306 177.82 24.1812 178.052 24.3833L178.577 29.1588L179.839 28.8189L179.495 22.3921C180.499 21.1579 181.179 20.8552 182.692 21.3236C183.556 20.0663 184.157 19.7793 185.561 20.4494C187.118 18.4028 188.049 18.5525 189.774 20.3199C189.751 20.4927 189.714 20.5823 189.479 20.6923C187.599 19.2604 186.77 19.2028 185.922 21.1779L185.397 21.3236C183.936 20.468 183.454 20.8356 182.856 22.1492L182.544 22.2302C181.491 21.5428 181.002 21.7084 180.249 22.6673L180.659 28.6084L183.577 27.9771C183.876 28.0823 184.202 28.0631 184.889 27.9771L184.758 24.3994C184.874 23.9136 185.03 23.7689 185.397 23.6386L195.578 24.3023V25.1927L186.2 24.3994C185.67 24.3748 185.48 24.416 185.217 24.5289L185.397 27.8476H185.758C185.758 26.9798 185.78 26.4988 186.086 25.7107C186.441 25.1104 186.7 25.0309 187.299 25.4841C187.709 26.2845 187.766 26.8155 187.692 27.8476H187.905C187.926 27.1756 187.941 26.8004 188.168 26.1964C188.423 25.677 188.615 25.4725 189.119 25.3869C189.75 25.3807 189.99 25.5653 190.266 26.1478L190.348 28.058L191.529 28.1875C191.625 27.6322 191.644 27.2956 191.594 26.6335C191.442 25.9401 191.315 25.8661 190.971 26.6335C190.85 26.6669 190.831 26.6055 190.824 26.4554C190.92 26.063 191.025 25.8721 191.381 25.6298C191.902 25.6279 192.119 25.7523 192.398 26.1964C192.539 26.9364 192.53 27.3776 192.516 28.0607V28.0607L192.512 28.2685L198.119 28.7541V29.4826C190.482 28.6082 186.894 28.291 184.036 28.6084L184.266 30.1302L183.446 30.292L183.331 28.2685C179.877 29.4937 177.94 30.1582 174.478 31.2148C174.538 31.9503 174.617 32.2587 174.822 32.6232L174.15 32.8336ZM182.823 14.8486C184.192 14.8679 184.941 14.8219 186.233 14.6058C186.236 14.0745 186.095 13.7793 185.348 13.2621C184.496 12.9789 184.092 13.1095 183.479 13.7478C183.097 14.1224 182.945 14.3599 182.823 14.8486ZM187.102 27.8479H186.184C186.19 27.2561 186.21 26.9234 186.348 26.3262C186.712 25.4775 186.861 25.6738 187.102 26.3262V27.8479ZM188.446 27.8802L189.758 27.9774V26.7309C189.523 26.0121 189.311 25.8841 188.692 26.4718C188.55 26.8893 188.481 27.1554 188.446 27.8802Z" fill="white"/>
<path d="M206.481 49.2166C205.882 50.7915 205.502 51.66 205.088 53.2961C205.136 53.4255 205.195 53.4436 205.334 53.4256L205.531 52.9562C206.021 52.1321 206.248 51.612 206.629 50.6574C207.323 49.0913 207.758 48.2415 208.711 46.8369L208.733 46.8038C209.413 45.776 209.801 45.1894 210.875 44.7C211.087 44.5349 211.078 44.3755 210.99 44.0525C209.941 44.1894 209.45 44.7088 208.596 45.7361C207.578 46.9571 207.115 47.7189 206.481 49.2166Z" fill="white"/>
<path d="M183.447 60.0144L180.561 61.0828C180.478 61.2372 180.522 61.2876 180.725 61.3256C181.519 61.298 182.047 61.1874 183.184 60.759C184.219 60.47 184.81 60.2328 185.873 59.7392L184.135 60.8562L181.561 62.6045C180.274 63.4905 179.58 63.933 178.479 64.4662C177.831 64.6894 177.538 64.9883 177.086 65.6965C176.684 66.6565 176.438 67.1064 175.971 67.7848C176.037 68.1602 176.087 68.3377 176.331 68.2543L177.086 67.1697C177.373 66.3029 177.536 65.8199 178.135 65.3727C178.985 64.997 179.445 64.7324 180.233 64.1424L183.184 62.1998L187.381 59.1726L190.251 57.2137L188.021 59.2859C187.286 59.8567 186.923 60.1974 186.398 60.8562L184.348 62.7826C183.48 63.7078 182.993 64.2009 182.135 64.79L180.725 66.5059C179.856 66.9557 179.367 67.1645 178.479 67.1697C178.299 66.9303 178.188 66.8061 177.938 66.6355C177.733 66.572 177.709 66.7543 177.807 67.4125C178.022 67.9448 178.208 68.111 178.676 68.141C179.55 68.0608 180.042 67.8797 180.922 67.4125L183.398 64.6281C184.66 63.661 185.252 63.0334 186.299 61.9084L187.841 60.2896L189.628 58.5412C190.319 57.8107 190.71 57.4057 191.513 56.7928L193.038 55.4168L194.972 53.6523C195.807 52.9198 196.307 52.5549 197.284 52.0334L200.251 49.9289L202.153 48.5853L204.006 47.2578L205.367 46.4646L207.006 45.4771C207.323 45.2995 207.52 45.2334 207.629 44.7C207.496 44.6016 207.479 44.5372 207.629 44.3925L206.777 44.6191C205.765 45.0166 205.286 45.3455 204.498 46.0113L201.022 48.5205L198.087 50.706C196.402 51.7968 195.487 52.4351 193.939 53.6523L190.415 56.3558L187.152 58.2498C185.575 59.1192 184.75 59.5231 183.447 60.0144Z" fill="white"/>
<path d="M182.987 55.8539C181.821 57.6284 181.353 58.6739 180.495 60.5324C180.568 60.7411 180.619 60.8085 180.741 60.7752L181.036 60.2248L182.085 58.4441L183.282 56.4853C183.925 55.8734 184.303 55.5968 185.036 55.3035C186.048 54.9323 186.613 54.7356 187.66 54.2189L190.365 52.4381C191.189 51.775 191.677 51.4724 192.611 51.0945L194.709 50.0746L196.365 49.3299C196.863 49.1033 197.962 48.6047 198.382 48.4234C198.802 48.2421 199.497 47.9485 199.792 47.8244C200.131 47.6835 200.31 47.6012 200.382 47.3873C199.749 47.438 198.955 47.7593 197.693 48.2291L193.25 49.8804C191.423 50.5984 190.541 51.1281 189.086 52.1791C187.39 53.2511 186.456 53.639 184.791 54.2998C184.066 54.5037 183.675 54.9163 182.987 55.8539Z" fill="white"/>
<path d="M213.433 54.2837C212.629 54.6224 212.329 54.871 211.973 55.3845C211.958 55.6105 212.01 55.5992 212.17 55.433C212.742 55.0363 213.03 54.9209 213.433 55.0607L215.088 55.7568C216.203 56.1878 216.707 56.1961 217.58 56.1615L219.81 55.8216L221.778 55.9673C222.251 55.9399 222.449 55.865 222.663 55.6111C222.776 55.4333 222.697 55.3912 222.466 55.3521L221.351 55.0607C220.158 54.7205 219.495 54.6962 218.318 54.8503C217.113 55.077 216.483 55.0829 215.482 54.7855C214.736 54.4377 214.313 54.2577 213.433 54.2837Z" fill="white"/>
<path d="M231.155 75.879C230.102 76.1439 229.657 76.387 228.958 76.8827C228.891 76.9775 228.911 77.0086 229.024 77.0284C229.59 76.9026 229.918 76.8536 230.565 76.8827L232.942 77.0769C233.364 76.9643 233.311 76.7657 232.942 76.2837C232.336 75.8012 231.927 75.7755 231.155 75.879Z" fill="white"/>
<path d="M232.107 68.6104C231.154 69.0212 230.632 69.2645 229.713 69.7112C229.672 69.8603 229.729 69.8775 229.894 69.8569C231.491 69.6056 232.719 69.556 232.91 68.918C232.678 68.69 232.529 68.5874 232.107 68.6104Z" fill="white"/>
<path d="M230.287 67.8495C229.854 68.2111 229.574 68.3783 229.057 68.659C228.945 68.7868 229.078 68.7816 229.314 68.7725L229.319 68.7723L230.287 68.3999C230.792 68.1321 231.068 67.9606 231.516 67.542C231.535 67.2662 231.473 67.1622 231.09 67.1696L230.287 67.8495Z" fill="white"/>
<path d="M178.145 71.1688C176.519 71.3213 175.606 71.407 174.281 71.832C174.274 71.9085 174.304 71.9269 174.38 71.9453L179.921 71.8644C181.315 71.9461 182.082 71.953 183.413 71.8644H186.004C187.135 72.024 187.776 72.0285 188.938 71.8644L192.185 71.573C193.36 71.8273 194.007 71.8887 195.136 71.8644C196.678 71.9195 197.607 71.8848 199.677 71.3949C200.785 70.9331 201.391 70.6948 202.185 70.6502L204.169 70.3912L206.104 69.9218L207.874 69.3875L209.809 69.3066C210.885 69.2118 211.316 69.0951 212.039 68.8695L214.777 68.3677C215.644 68.0918 216.054 67.8761 216.564 67.3154L218.154 66.2308L219.072 65.1947L219.941 64.4339C220.097 64.1922 220.068 64.0768 219.859 63.8996C219.244 63.6609 218.899 63.5717 218.269 63.4787L215.826 63.0417L214.186 62.6046L212.678 61.9408H213.399L214.875 62.2808C215.636 62.5981 216.086 62.7546 216.859 62.9445C217.672 63.1741 218.128 63.2468 218.941 63.1873C219.57 63.0049 219.937 62.908 220.236 62.6046C220.735 61.915 220.099 61.7234 218.995 61.3906L218.941 61.3742C217.652 61.2107 217.037 60.9914 216.121 60.4029C216.409 59.8105 216.455 59.5245 215.826 59.3021C214.936 59.4112 214.446 59.4288 213.645 59.1564C212.716 58.7981 212.325 58.4858 211.629 57.9261C210.913 57.0926 210.7 56.6218 210.924 55.773L211.53 53.2476C211.853 52.607 212.011 52.258 211.744 51.8716C211.534 51.4975 211.38 51.327 211.055 51.0945C210.802 50.9741 210.715 50.9736 210.711 51.1593L211.055 51.6288C211.308 52.2136 211.238 52.4403 210.973 52.7781L210.596 54.2027L209.924 56.2101C209.945 57.1675 210.126 57.6721 210.793 58.5251C211.177 59.0106 211.493 59.2658 212.137 59.7068C212.911 60.2779 213.413 60.385 214.367 60.4029C214.857 60.2399 215.129 60.165 215.58 60.1601C215.306 60.5514 215.286 60.7708 215.711 61.1638C216.153 61.5116 216.43 61.6918 217.072 61.9408C217.761 62.2857 218.15 62.4378 218.859 62.6046C218.627 62.7382 218.367 62.7415 217.646 62.6046C216.867 62.5253 216.487 62.3729 215.826 62.0703L213.826 61.3742C212.692 61.2849 212.205 61.332 212.137 61.9408C212.159 62.4052 212.369 62.6474 213.072 63.0417C213.628 63.4396 213.953 63.5978 214.563 63.7378C215.351 64.037 215.771 64.1324 216.498 64.2234L216.557 64.2346C217.497 64.4137 218.042 64.5176 218.859 64.4339L217.646 65.1947L215.973 66.2308L213.563 67.4935C212.224 67.9161 211.479 68.0007 210.153 68.0601C208.667 68.0781 208.079 68.3073 207.038 68.7238C205.435 69.1623 204.767 69.1641 203.628 69.1123L200.185 69.7437C198.98 70.2193 198.264 70.377 196.972 70.6179C195.61 70.7767 194.846 70.7194 193.48 70.2455C192.14 70.1067 191.449 70.1017 190.348 70.2455L187.348 70.5855L184.2 70.715L185.135 69.5171C185.673 68.9481 185.975 68.6126 186.512 67.8496C186.897 67.4169 187.108 67.159 187.348 66.3117C187.371 65.8556 187.516 65.6401 188.102 65.3566C188.615 65.1052 188.874 64.8875 189.299 64.3853L190.693 62.9445L192.873 60.6943L194.759 58.9783L196.496 57.5699C196.735 57.2015 196.902 56.9811 196.611 56.8253C196.382 56.8801 196.325 56.8554 196.496 56.5986L195.332 57.3757C194.478 57.9135 194.076 58.2524 193.447 58.8974L191.07 61.2609L188.43 63.8511C187.147 64.7115 186.519 65.1781 186.758 65.7775C186.174 67.1159 185.749 67.6031 185.036 68.5943C184.497 69.4286 184.277 69.8916 183.938 70.715L178.151 71.1683L178.145 71.1688Z" fill="white"/>
<path d="M192.612 35.7963C191.386 35.7084 190.718 35.7334 189.529 35.7963C189.346 35.9266 189.476 35.9567 189.726 36.0068L191.513 36.2496C192.301 36.3232 192.743 36.3908 193.53 36.5896C194.206 36.7743 194.56 36.9172 195.136 37.2695L196.645 37.998C196.96 38.3958 197.166 38.5511 197.76 38.2894C197.897 38.6164 198.131 38.7922 198.678 39.0988L200.071 39.633L201.465 40.4424C201.465 40.4424 202.875 41.1547 203.006 41.3004C203.137 41.4461 204.465 42.2556 204.465 42.2556L205.695 42.9355C206.574 42.8956 207.046 42.753 207.875 42.4336H209.875C210.891 42.7427 211.452 42.8374 212.433 42.806L214.351 42.4336L216.991 41.6566C217.582 41.412 217.94 41.2279 218.368 41.2681L218.565 40.1834C218.466 40.7002 217.841 40.9683 215.892 41.4137L219.761 38.2732L221.024 36.3629C220.458 37.0142 220.126 37.2912 219.516 37.6418L216.991 39.4873C215.99 40.2417 215.481 40.7168 214.663 41.6566C213.972 41.821 213.568 41.8537 212.81 41.8023C211.433 41.4681 210.658 41.3462 209.269 41.4137C208.039 41.4231 207.408 41.7344 206.252 42.126C205.575 41.8925 205.246 41.6818 204.662 41.3004C204.662 41.3004 202.858 39.8596 201.465 39.4549C200.071 39.0502 199.245 38.6694 198.579 37.998C198.785 37.7778 198.694 37.6853 198.366 37.5447C197.342 37.613 196.879 37.2372 196.022 36.6867C194.69 35.963 193.943 35.8433 192.612 35.7963Z" fill="white"/>
<path d="M218.482 9.61951C218.549 9.43744 218.548 9.28274 218.531 8.98816L219.007 10.2832L218.564 10.0728C218.477 10.2106 218.246 10.2047 217.777 10.2023C217.38 10.2194 217.173 10.2612 216.859 10.4451C217.616 10.7674 218.067 10.9466 218.22 11.3031C218.317 11.7173 218.364 12.0059 218.498 12.1287C218.757 12.4665 218.857 12.6738 218.81 13.1324L218.564 13.8123L219.023 14.4275L218.515 14.6703L218.089 14.1847C217.96 13.7885 218.048 13.5871 218.22 13.2295C218.277 12.9026 217.908 12.8572 217.81 12.3392C217.711 11.8211 217.791 11.5864 217.58 11.4488C217.055 11.2484 216.773 11.1221 216.318 10.8336C215.992 10.311 215.924 10.0355 216.711 9.68426C217.376 9.58164 217.764 9.57018 218.482 9.61951Z" fill="white"/>
<path fill-rule="evenodd" clip-rule="evenodd" d="M207.842 8.04926C207.869 8.26155 207.866 8.36073 207.842 8.51872C208.339 8.35258 208.618 8.31331 209.12 8.4054C209.708 8.59175 209.669 8.70396 209.432 8.90725H208.596C208.292 8.88166 208.143 8.88714 207.94 8.95581L207.645 9.63573L207.94 10.1699C208.177 10.3576 208.286 10.5253 208.465 10.8661C208.896 10.9804 209.131 11.0819 209.53 11.3841L209.531 11.3846C210.026 11.6572 210.303 11.8103 210.825 11.6755C210.848 11.6701 210.869 11.6648 210.891 11.6596C211.4 11.5357 211.705 11.4616 212.35 11.5136H213.99C214.439 11.6503 214.617 11.5627 214.793 11.0927C215.046 10.5689 215.202 10.2943 215.531 9.87856L215.334 9.08532C215.734 8.73196 215.965 8.58723 216.4 8.53491C216.584 8.59719 216.627 8.6431 216.564 8.74536L216.105 9.78142L215.268 11.1736C214.949 11.8561 214.692 12.0962 213.99 12.0802H212.547C211.929 12.0542 211.634 12.0928 211.17 12.2259H210.579L211.383 14.6218C211.552 15.3998 211.732 15.741 212.334 16.0302C213.064 16.0213 213.479 16.029 214.301 16.2244L215.826 16.5482C216.384 16.6267 216.644 16.5869 217.055 16.4349C217.142 16.5715 217.042 16.6597 216.383 16.8558C216.059 17.0472 215.817 17.0438 215.367 17.0015C214.905 17.2551 214.595 17.3494 213.94 17.4224L212.17 17.1634L211.006 16.7101C210.957 16.7021 210.91 16.6949 210.866 16.688C210.556 16.64 210.345 16.6072 210.071 16.4349L209.874 15.415L208.547 15.9492L207.858 16.2244L208.415 17.1634L209.186 18.3613L210.825 18.9603C211.15 19.106 211.336 19.2189 211.678 19.5593L212.645 20.1259C212.71 20.489 212.62 20.5658 212.432 20.6763L211.268 19.8669L209.874 19.2193L208.792 18.8794L208.301 18.0699L207.743 17.0986L207.333 16.4349C207.305 16.1174 207.345 15.971 207.694 15.8683L208.612 15.5122C208.492 15.5254 208.376 15.5382 208.261 15.5508C206.423 15.7531 205.291 15.8777 204.284 16.2244L201.333 16.5482C199.469 17.9019 198.529 18.6725 197.562 20.1259C197.293 20.9702 196.983 21.318 196.349 21.8742V23.8816C196.755 23.9795 196.949 24.104 197.201 24.5291C197.502 24.7392 197.748 24.7892 198.251 24.8205C198.645 24.8594 198.794 25.0968 198.906 25.9537V28.8353L203.071 29.2562C203.83 28.2565 204.596 27.7918 205.714 27.1134C205.879 27.0129 206.053 26.9078 206.235 26.7955L209.874 24.5291C211.505 23.5701 212.489 23.2039 214.301 22.6837C216.085 21.9975 217.129 21.6821 219.088 21.2753C218.943 20.9367 218.865 20.7468 218.826 20.4011C218.839 19.9769 218.898 19.7518 219.383 19.446L219.744 19.3164C219.783 19.5312 219.699 19.5972 219.531 19.705C219.296 19.8533 219.253 19.9982 219.383 20.4011C219.75 20.7188 220.003 20.795 220.548 20.7734C221.051 20.7498 221.282 20.6623 221.498 20.223C221.636 19.6845 221.772 19.4899 222.318 19.705C222.768 19.9019 222.743 20.2105 222.613 20.822C222.219 21.3543 221.97 21.5202 221.498 21.6962C221.024 21.929 220.719 21.9048 220.17 21.8419L219.383 21.4695L217.039 22.1171L215.318 22.8294L212.547 23.9464L209.743 25.549L207.481 27.1517L205.399 28.8029L202.972 31.1341C202.923 32.0116 202.537 32.1796 201.759 32.3968L199.431 33.6109L200.284 34.307C200.345 34.2973 200.404 34.2877 200.461 34.2785C201.04 34.1847 201.414 34.1241 202.038 34.307C202.357 34.2937 202.686 34.322 203.078 34.3557C203.564 34.3975 204.146 34.4475 204.923 34.4365C206.209 34.2026 206.937 34.1638 208.251 34.3232C208.842 34.3697 209.178 34.3753 209.825 34.1775C210.247 34.0175 210.469 33.9779 210.825 34.048L211.727 32.6396C212.193 31.7638 212.546 31.3648 213.301 30.7779C213.862 29.862 214.179 29.3509 215.137 28.8191C215.755 28.6148 216.117 28.4343 216.81 27.9287L218.285 27.1679C218.509 27.0985 218.632 27.0919 218.842 27.2326C218.668 27.65 218.412 27.8505 218.042 28.1405C217.984 28.186 217.923 28.2337 217.859 28.2849C217.022 29.2176 216.525 29.6139 215.547 29.9199C214.886 30.1966 214.533 30.6298 213.953 31.3414C213.922 31.3794 213.891 31.4182 213.858 31.4578L212.842 32.5425L211.514 33.8375L212.957 33.2224C213.584 33.0702 214.07 33.2673 214.957 33.6595C215.66 33.8399 216.035 34.0506 216.613 34.9222C216.759 35.582 216.51 35.6933 215.924 35.7801C215.721 35.6713 215.627 35.5361 215.514 35.1002C215.571 34.7323 215.116 34.5361 213.908 34.1937C213.552 33.8688 213.24 33.8427 212.53 33.9994L211.514 34.3232C211.62 34.3411 211.72 34.3566 211.814 34.3713C212.346 34.4546 212.722 34.5134 213.367 34.8412C213.919 35.2317 214.147 35.5994 214.547 36.2658C215.156 36.2916 215.494 36.4026 216.088 36.8648C216.279 37.3308 216.285 37.6559 216.187 38.3056C216.026 38.6435 215.936 38.6747 215.777 38.7103C215.752 38.4099 215.707 38.2835 215.613 38.0789V37.4799C215.15 37.0676 214.877 37.0328 214.383 37.0914C213.913 36.8931 213.768 36.5959 213.552 36.1521C213.525 36.0953 213.496 36.0361 213.465 35.9744C213.269 35.5145 213.104 35.2864 212.645 34.9707L211.17 34.5013C210.715 34.3177 210.502 34.3009 210.235 34.5013C209.563 34.8891 209.096 34.9272 208.186 34.8412H206.464L204.464 35.4726C203.056 35.5333 202.18 35.3406 200.746 35.0256C200.665 35.0077 200.582 34.9894 200.497 34.9707C200.383 35.8572 200.229 36.2692 199.841 36.8972H199.677C199.861 36.3881 199.929 36.0949 199.89 35.5373L199.841 34.7441L198.562 33.8375C198.488 33.7238 198.427 33.6264 198.374 33.5419C198.051 33.0278 198.028 32.9914 197.25 32.672C196.652 32.4576 195.999 32.5073 194.693 32.672C194.074 32.8094 193.659 32.7986 192.775 32.591C192.726 32.5863 192.679 32.5816 192.633 32.5771C191.893 32.5039 191.437 32.4588 191.02 32.7853L192.676 33.19L194.693 33.3033C195.172 33.3779 195.384 33.4684 195.693 33.6918C195.468 33.824 195.071 33.8456 194.119 33.8375L192.627 33.9347L190.791 33.5947L188.84 33.19C188.007 32.9587 187.532 32.9389 186.676 33.0119L185.545 33.19L187.938 33.6595L189.938 34.0156C190.845 34.3021 191.284 34.4791 191.922 34.825C191.889 35.0328 191.803 35.1059 191.561 35.1812L190.315 34.7117L188.578 34.3556L186.463 33.9023L185.004 33.6595C184.512 33.5427 184.408 33.4245 184.446 33.1414C184.657 32.8334 184.96 32.6964 186.135 32.5748C186.817 32.3779 187.237 32.3698 188.037 32.4939L190.742 33.0119C190.58 32.3712 190.684 32.0732 191.48 31.733C192.297 31.6203 192.862 31.7096 193.922 31.9435L195.923 31.7816C196.729 31.775 197.186 31.8403 198.021 32.2672C198.482 32.5593 198.647 32.7752 198.89 33.19L200.972 31.9435L198.251 31.7816L195.168 31.5388L192.217 31.2797L189.168 30.9884L185.545 30.8103H183.79C182.894 31.427 182.185 31.5492 180.888 31.733L177.577 32.4939L174.937 33.1414L176.986 33.3033L178.937 33.6595C178.935 33.1482 178.964 32.8851 179.708 32.9472C180.317 32.9637 180.47 33.3196 180.577 34.2584L180.692 35.2621C181.549 35.842 181.905 36.0132 182.167 35.8611C182.068 35.7599 181.972 35.6675 181.881 35.5803C181.489 35.2034 181.197 34.9234 181.184 34.4527C181.018 34.0229 180.976 33.7859 181.184 33.3843C181.413 33.2016 181.576 33.1892 181.921 33.3033L182.315 33.6595C182.104 33.8106 181.954 33.8087 181.675 33.7728C181.521 34.0021 181.74 34.4152 182.249 35.2621C182.573 35.5805 182.764 35.7151 183.151 35.7478C183.146 35.486 183.086 35.367 182.921 35.1812C182.599 34.8861 182.458 34.6977 182.38 34.2584C182.393 33.8468 182.428 33.6371 182.61 33.3519C182.839 33.2788 182.98 33.2709 183.266 33.3519L184.266 34.1451C184.617 34.4344 184.817 34.534 185.184 34.4527C185.269 34.5421 185.238 34.5763 185.151 34.6308C184.855 34.782 184.69 34.809 184.397 34.7927L183.512 34.2584L182.921 33.8052L182.872 34.3879C183.345 34.6584 183.526 34.8583 183.676 35.3107L185.299 35.5049L186.282 35.3754C186.529 35.5302 186.628 35.6316 186.676 35.8611L185.823 36.0392L184.594 36.1363L183.315 36.0392C183.173 36.1418 183.08 36.1806 182.872 36.1849L181.987 36.4115C181.602 36.3705 181.391 36.3085 181.036 36.0392C180.737 35.9177 180.516 35.762 180.282 35.5049C179.921 35.6427 179.743 35.609 179.462 35.3754L178.987 34.1451C178.757 34.4293 178.37 34.3599 177.577 34.1451L175.937 33.7728L174.658 33.5785C174.366 33.5563 174.27 33.3424 174.134 32.85L174.822 32.5748L178.478 31.3931L183.512 30.2437L184.266 30.1142C186.878 30.063 188.354 30.11 191.02 30.4218L196.742 30.9236L202.464 31.2797V29.9523L198.021 29.4828C198.208 28.1202 198.144 27.2072 198.042 25.7316C198.035 25.6355 198.028 25.5369 198.021 25.4357L195.578 25.1767C195.502 24.0664 195.541 23.4342 195.693 22.2951L196.004 21.5343L196.972 20.1906C197.002 19.3478 197.254 18.9544 198.169 18.4099L200.513 16.4349C201.307 15.9218 201.898 15.7884 203.071 15.674L203.095 15.6654C204.337 15.224 205.041 14.9739 206.53 15.0913C206.615 15.0877 206.697 15.0842 206.776 15.0809C207.836 15.0368 208.5 15.0091 209.743 14.7999C209.847 14.6009 209.958 14.452 210.072 14.2994C210.191 14.14 210.313 13.9765 210.432 13.7476C210.56 13.3098 210.402 12.931 210.071 12.2259C209.704 12.1566 209.49 11.9968 209.104 11.6755C208.684 11.6181 208.458 11.5799 208.153 11.4488C207.968 11.1805 207.813 11.0457 207.541 10.8109L207.53 10.8013L207.055 9.87856C207.062 9.50107 207.168 9.29917 207.53 8.95581C207.373 8.77268 207.443 8.57074 207.556 8.24547C207.564 8.2238 207.571 8.20157 207.579 8.17876L207.842 8.04926ZM180.068 34.9869C179.986 34.3597 179.978 34.042 180.101 33.5947C179.883 33.422 179.758 33.3963 179.527 33.449C179.62 34.0342 179.781 34.3754 180.065 34.9806L180.068 34.9869Z" fill="white"/>
<path d="M211.58 1.65475C210.91 2.06945 210.562 2.3569 209.957 2.90126L210.088 3.45167L211.006 3.07934L211.859 2.69081L212.711 2.77176L213.728 2.90126C214.31 3.00371 214.436 3.1046 214.712 3.2736L215.679 3.88876L216.777 4.64962L217.154 4.42298L215.679 3.45167L214.712 2.90126L213.515 2.60987L212.498 2.48036C212.088 2.42649 211.877 2.437 211.58 2.60987L210.088 3.19266L211.17 2.60987C211.554 2.38681 211.777 2.2869 212.138 1.97852L213.138 2.09184L214.384 2.33467L215.515 2.60987L216.777 3.19266L217.941 4.13159L218.892 5.08671L219.843 6.20372C220.258 6.71748 220.484 7.00647 220.564 7.56355L221.187 7.70925L220.909 6.59224L219.958 5.26479L218.499 3.71069C217.739 3.05354 217.342 2.77851 216.646 2.33467C215.917 2.00714 215.451 1.8556 214.515 1.65475L212.957 1.34717C212.315 1.23899 212.005 1.28891 211.58 1.65475Z" fill="white"/>
<path d="M209.53 4.22875C208.93 4.73376 208.646 5.05243 207.972 5.55621C208.012 6.01286 208.212 6.30557 208.48 6.30088L208.202 6.65703C207.571 6.78879 207.295 6.88515 207.382 7.22362C206.997 7.77426 207.128 7.95314 207.612 8.17875L207.808 8.03305C208.41 7.7585 208.728 7.70277 209.218 7.98448C209.35 7.9999 209.419 7.98299 209.53 7.88735L209.776 7.98448C209.875 7.932 209.916 7.88745 209.907 7.72547C209.774 7.59394 209.657 7.54915 209.218 7.62834C208.977 7.46433 208.851 7.44674 208.628 7.41789L207.677 7.70928L207.808 7.22362C208.277 7.20049 208.475 7.13466 208.628 6.85129C208.983 6.83528 209.156 6.84491 209.317 6.96461L209.644 7.46645C209.888 7.53946 210.024 7.5653 210.267 7.46645L210.265 7.47157C210.186 7.62053 210.141 7.70562 210.169 7.88735C210.248 8.04299 210.303 8.1218 210.497 8.17875V8.69678C210.713 9.01383 210.837 9.1828 211.104 9.31194V9.7976H209.317C208.439 9.46812 208.016 9.36746 207.677 9.70047L207.284 10.2671L207.972 10.1537L208.628 10.2671C209.258 10.5076 209.617 10.559 210.267 10.4128H212.071H213.842L215.563 9.7976L216.432 9.16625L216.613 8.76155L216.432 8.53489L214.645 9.45764L212.743 9.55477L211.432 9.70047C211.603 9.32752 211.314 9.01196 210.874 8.47014C210.922 8.10187 210.834 7.92905 210.366 7.70928L210.497 7.28838L209.94 7.12649L209.53 6.65703H208.628L208.858 6.17137L209.431 6.30088L210.267 6.49514C210.438 6.37209 210.531 6.30049 210.563 6.07424L210.169 6.17137L210.1 6.15453C209.465 5.99871 209.088 5.90631 208.48 5.89617L208.382 5.70191L208.858 5.21625L209.972 3.98593H209.661L210.104 3.38695L209.94 2.85273L210.169 2.14044C210.607 1.43933 210.792 0.978538 211.661 0.764414L214.383 0.958676L216.94 0.764414C217.568 0.97693 217.946 1.18594 218.858 2.36708L220.137 3.61359L220.875 5.68572C221.182 6.54531 221.332 7.01759 221.219 7.69309L220.498 7.53121L218.662 5.68572C218.179 5.13733 217.908 4.83039 217.17 4.42301L216.793 4.61728C216.751 5.14681 216.855 5.43622 217.17 5.94473C217.585 6.6231 217.82 6.96905 218.252 7.30457L218.498 8.89104L219.006 10.2994C219.646 10.4401 219.998 11.0241 220.629 12.3716C219.954 12.9686 219.779 13.3286 219.858 14.0228L218.498 14.6541C218.96 15.3583 218.839 15.9713 219.858 16.5968C220.76 17.2926 221.389 17.5744 222.613 17.989C223.868 18.3505 224.527 18.717 225.515 20.0611L227.63 22.3761C228.223 24.0003 228.074 24.7804 227.302 26.0347C226.96 28.0361 226.458 28.5219 225.515 29.2885C224.99 30.7439 224.474 31.3122 223.285 32.0244C222.394 33.205 221.939 34.3068 221.121 36.2172L218.924 39.4873C218.575 40.1614 218.428 40.5496 218.367 41.2842L218.76 43.2107C218.923 44.224 218.851 44.7028 218.219 45.2828L218.596 45.8656C219.124 46.4698 219.406 46.8159 219.662 47.5816C219.977 48.7048 220.289 49.3269 220.941 50.4307C220.842 51.3633 221.04 51.8138 222.367 52.341L224.629 53.8951C225.831 54.6798 226.416 55.1943 226.646 56.7928C227.048 57.9348 227.377 58.3137 228.269 58.2174C228.663 59.0564 228.781 59.5065 228.564 60.2248L229.548 61.9731C230.694 62.8304 231.062 63.6857 231.482 65.5346L232.564 66.5545C233.302 67.7284 233.312 68.4883 232.958 69.9379L233.368 73.3213L233.827 77.2389L233.827 77.2576C233.85 77.9252 233.862 78.3053 233.073 78.7606C231.54 79.107 230.734 78.9118 229.351 78.1778C228.77 78.0502 228.591 77.8168 228.662 76.9637L228.859 73.9526C229.004 72.4425 229.119 71.5417 228.859 70.6987C228.744 70.2654 227.906 70.0456 226.646 69.6465L223.383 67.7038L220.137 66.3116L221.039 67.0725L223.383 68.4323C224.379 68.9495 224.916 69.2589 225.629 70.035C226.998 70.7819 227.959 71.2202 227.826 71.8157H223.892H221.17L218.711 72.4309L214.186 72.528L212.317 72.4309L206.07 73.1432L201.857 73.5965H195.824L189.512 74.1145L185.888 73.904L180.691 74.3897L178.609 74.5354L175.822 75.5553L173.559 75.9438L171.363 76.9151H167.198L165.723 76.6723L164.575 75.7333V75.2153H165.969C166.89 75.1233 167.415 74.922 168.362 74.3897C169.614 73.233 170.113 72.3192 170.985 70.6663L173.756 65.5346L176.265 60.3705C177.779 56.7421 178.636 54.7366 180.527 52.5514C181.415 50.1241 181.952 48.8108 183.528 47.2092L183.549 47.1083C183.87 45.5887 184.057 44.7061 185.052 43.502L186.364 39.6978L188.921 37.318C189.037 36.8688 189.041 36.6123 188.79 36.1363C187.628 36.5843 186.982 36.9164 185.856 37.8037L184.642 41.9641C182.741 44.8834 182.725 46.7074 181.085 49.5404C179.444 52.3733 179.199 52.9281 177.92 54.8826C177.094 58.2226 176.405 59.4998 175.133 61.6655C174.663 62.3513 172.114 67.2129 172.133 67.0887C172.152 66.9645 170.061 71.6548 168.018 73.3374C165.975 75.0201 162.931 73.0536 163.001 75.5715L164.395 76.9151L165.837 77.6598L170.526 78.0807L172.691 77.1741L180.199 74.9725H184.97L189.626 74.6487L194.61 74.4383L198.873 74.7944H203.398L208.923 74.0983H214.497L218.793 73.5155L223.285 72.9165H228.023C227.623 74.144 227.581 75.0247 227.564 76.6561C227.125 78.3328 227.917 78.9018 230.253 79.5862C231.808 80.1904 232.666 80.1345 234.171 79.4081C234.962 78.8044 235.118 78.3257 234.925 77.2389C234.037 74.2682 233.846 72.9235 233.827 70.8606C234.1 69.1096 234.153 68.1278 233.581 66.3764C232.032 64.9819 231.673 64.2027 231.482 62.8149C230.236 62.2358 228.346 59.7421 229.335 59.2858C230.324 58.8295 227.876 57.1004 227.318 55.8053C226.761 54.5102 224.763 52.8267 222.367 51.4344C221.229 50.0123 220.81 49.1693 220.531 47.5816C220.01 46.5564 219.652 46.0313 218.76 45.2828C219.153 44.8893 219.286 44.6151 219.35 44.0201C219.854 42.5416 218.613 41.382 218.76 40.9605C218.907 40.5389 220.765 37.9072 222.187 35.9906C222.139 34.9973 224.348 31.6884 225.761 30.9236C227.173 30.1588 227.96 27.9847 228.581 25.0633C228.818 22.1454 228.047 21.2415 226.4 19.8507C226.539 19.7147 224.449 17.8738 222.613 17.3738C220.776 16.8738 219.004 14.9094 219.367 15.156C220.447 14.7352 220.709 14.3531 220.498 13.3753L221.072 12.8248C221.527 12.5508 221.739 12.3458 221.76 11.546C221.66 10.593 221.519 10.0817 221.219 9.18243C221.706 8.28585 221.928 7.75329 222.072 6.65703C221.678 6.20277 221.591 5.90442 221.613 5.31338C221.418 4.29528 221.232 3.75215 220.711 2.85273C219.071 1.32804 218.183 0.332148 216.252 0.0844976C213.71 0.158659 211.912 -0.27288 210.825 0.311137C210.359 0.922039 210.116 1.1811 209.694 1.59003C209.491 1.94828 209.505 2.536 209.528 3.54928V3.54934L209.53 3.61359C209.166 4.07058 209.277 4.13889 209.53 4.22875Z" fill="white"/>
<path d="M211.925 3.35459C211.39 3.3623 211.108 3.38184 210.761 3.54885C210.672 3.7336 210.725 3.845 210.908 4.0507L211.515 4.68205L211.449 5.18389C211.502 5.24702 211.535 5.25203 211.597 5.24864C212.022 5.13353 212.235 5.02745 212.564 4.76299C212.882 4.77571 213.061 4.80167 213.384 4.8925C213.638 4.78412 213.771 4.72087 213.843 4.56873C213.553 4.24428 213.349 4.14242 212.974 3.98594C212.607 3.86816 212.417 3.84808 212.088 3.84024L211.744 4.16401C211.662 4.17696 211.631 4.15133 211.597 4.0507L211.744 3.66217H212.154C212.523 3.61847 212.733 3.60812 213.121 3.66217L213.843 3.98594C214.134 3.85697 213.926 3.71775 213.548 3.46791C212.916 3.33626 212.56 3.3262 211.925 3.35459Z" fill="white"/>
</svg>
