<svg aria-hidden="true" style="position: absolute; width: 0; height: 0; overflow: hidden;" version="1.1"
      xmlns="http://www.w3.org/2000/svg"
      xmlns:xlink="http://www.w3.org/1999/xlink">
      <defs>
            <symbol id="app-plus" viewBox="0 0 32 32">
                  <path fill="currentColor" d="M16 3.667c-6.811 0-12.333 5.522-12.333 12.333s5.522 12.333 12.333 12.333c6.811 0 12.333-5.522 12.333-12.333s-5.522-12.333-12.333-12.333zM1.667 16c0-7.916 6.417-14.333 14.333-14.333s14.333 6.417 14.333 14.333c0 7.916-6.417 14.333-14.333 14.333s-14.333-6.417-14.333-14.333z"></path>
                  <path fill="currentColor" d="M9.667 16c0-0.552 0.448-1 1-1h10.667c0.552 0 1 0.448 1 1s-0.448 1-1 1h-10.667c-0.552 0-1-0.448-1-1z"></path>
                  <path fill="currentColor" d="M16 9.667c0.552 0 1 0.448 1 1v10.667c0 0.552-0.448 1-1 1s-1-0.448-1-1v-10.667c0-0.552 0.448-1 1-1z"></path>
            </symbol>
            <symbol id="burger-menu" viewBox="0 0 32 32">
                  <path fill="currentColor" d="M4.333 16c0-0.552 0.448-1 1-1h21.333c0.552 0 1 0.448 1 1s-0.448 1-1 1h-21.333c-0.552 0-1-0.448-1-1z"></path>
                  <path fill="currentColor" d="M4.333 8c0-0.552 0.448-1 1-1h21.333c0.552 0 1 0.448 1 1s-0.448 1-1 1h-21.333c-0.552 0-1-0.448-1-1z"></path>
                  <path fill="currentColor" d="M4.333 24c0-0.552 0.448-1 1-1h21.333c0.552 0 1 0.448 1 1s-0.448 1-1 1h-21.333c-0.552 0-1-0.448-1-1z"></path>
            </symbol>
            <symbol id="calendar" viewBox="0 0 24 24" fill="none">
                  <path id="Vector" d="M19 4H5C3.89543 4 3 4.89543 3 6V20C3 21.1046 3.89543 22 5 22H19C20.1046 22 21 21.1046 21 20V6C21 4.89543 20.1046 4 19 4Z" stroke="currentColor" stroke-width="1.5" stroke-linecap="round" stroke-linejoin="round"></path>
                  <path id="Vector_2" d="M16 2V6" stroke="currentColor" stroke-width="1.5" stroke-linecap="round" stroke-linejoin="round"></path>
                  <path id="Vector_3" d="M8 2V6" stroke="currentColor" stroke-width="1.5" stroke-linecap="round" stroke-linejoin="round"></path>
                  <path id="Vector_4" d="M3 10H21" stroke="currentColor" stroke-width="1.5" stroke-linecap="round" stroke-linejoin="round"></path>
                  <path id="Vector_5" d="M8 14H8.01" stroke="currentColor" stroke-width="1.5" stroke-linecap="round" stroke-linejoin="round"></path>
                  <path id="Vector_6" d="M12 14H12.01" stroke="currentColor" stroke-width="1.5" stroke-linecap="round" stroke-linejoin="round"></path>
                  <path id="Vector_7" d="M16 14H16.01" stroke="currentColor" stroke-width="1.5" stroke-linecap="round" stroke-linejoin="round"></path>
                  <path id="Vector_8" d="M8 18H8.01" stroke="currentColor" stroke-width="1.5" stroke-linecap="round" stroke-linejoin="round"></path>
                  <path id="Vector_9" d="M12 18H12.01" stroke="currentColor" stroke-width="1.5" stroke-linecap="round" stroke-linejoin="round"></path>
                  <path id="Vector_10" d="M16 18H16.01" stroke="currentColor" stroke-width="1.5" stroke-linecap="round" stroke-linejoin="round"></path>
            </symbol>
            <symbol id="close" viewBox="0 0 24 24">
                  <path id="Vector" d="M18 6L6 18" stroke="currentColor" stroke-width="1.5" stroke-linecap="round" stroke-linejoin="round"></path>
                  <path id="Vector_2" d="M6 6L18 18" stroke="currentColor" stroke-width="1.5" stroke-linecap="round" stroke-linejoin="round"></path>
            </symbol>
            <symbol id="close-nav" viewBox="0 0 32 32">
                  <path d="M15.374 8.626c0.391 0.391 0.391 1.024 0 1.414l-5.96 5.96 5.96 5.96c0.391 0.391 0.391 1.024 0 1.414s-1.024 0.391-1.414 0l-6.667-6.667c-0.391-0.391-0.391-1.024 0-1.414l6.667-6.667c0.391-0.391 1.024-0.391 1.414 0z"></path>
                  <path d="M24.707 8.626c0.391 0.391 0.391 1.024 0 1.414l-5.959 5.96 5.959 5.96c0.391 0.391 0.391 1.024 0 1.414s-1.024 0.391-1.414 0l-6.667-6.667c-0.391-0.391-0.391-1.024 0-1.414l6.667-6.667c0.391-0.391 1.024-0.391 1.414 0z"></path>
            </symbol>

            <symbol id="contacts" viewBox="0 0 32 32">
                  <path d="M9.407 21.407c0.688-0.688 1.62-1.074 2.593-1.074h8c0.972 0 1.905 0.386 2.593 1.074s1.074 1.62 1.074 2.593c0 0.552-0.448 1-1 1s-1-0.448-1-1c0-0.442-0.176-0.866-0.488-1.179s-0.737-0.488-1.179-0.488h-8c-0.442 0-0.866 0.176-1.178 0.488s-0.488 0.737-0.488 1.179c0 0.552-0.448 1-1 1s-1-0.448-1-1c0-0.972 0.386-1.905 1.074-2.593z"></path>
                  <path d="M6.667 6.333c-0.92 0-1.667 0.746-1.667 1.667v18.667c0 0.921 0.746 1.667 1.667 1.667h18.667c0.921 0 1.667-0.746 1.667-1.667v-18.667c0-0.92-0.746-1.667-1.667-1.667h-18.667zM3 8c0-2.025 1.642-3.667 3.667-3.667h18.667c2.025 0 3.667 1.642 3.667 3.667v18.667c0 2.025-1.642 3.667-3.667 3.667h-18.667c-2.025 0-3.667-1.642-3.667-3.667v-18.667z"></path>
                  <path d="M16 11.667c-0.921 0-1.667 0.746-1.667 1.667s0.746 1.667 1.667 1.667 1.667-0.746 1.667-1.667c0-0.92-0.746-1.667-1.667-1.667zM12.333 13.333c0-2.025 1.642-3.667 3.667-3.667s3.667 1.642 3.667 3.667c0 2.025-1.642 3.667-3.667 3.667s-3.667-1.642-3.667-3.667z"></path>
                  <path d="M10.667 1.667c0.552 0 1 0.448 1 1v2.667c0 0.552-0.448 1-1 1s-1-0.448-1-1v-2.667c0-0.552 0.448-1 1-1z"></path>
                  <path d="M21.333 1.667c0.552 0 1 0.448 1 1v2.667c0 0.552-0.448 1-1 1s-1-0.448-1-1v-2.667c0-0.552 0.448-1 1-1z"></path>
            </symbol>
            <symbol id="delete" viewBox="0 0 32 32">
                  <path d="M3 8c0-0.552 0.448-1 1-1h24c0.552 0 1 0.448 1 1s-0.448 1-1 1h-24c-0.552 0-1-0.448-1-1z"></path>
                  <path d="M6.667 7c0.552 0 1 0.448 1 1v18.667c0 0.341 0.181 0.767 0.54 1.126s0.785 0.54 1.126 0.54h13.333c0.341 0 0.767-0.181 1.126-0.54s0.54-0.785 0.54-1.126v-18.667c0-0.552 0.448-1 1-1s1 0.448 1 1v18.667c0 0.992-0.486 1.9-1.126 2.54s-1.549 1.126-2.54 1.126h-13.333c-0.992 0-1.9-0.486-2.54-1.126s-1.126-1.549-1.126-2.54v-18.667c0-0.552 0.448-1 1-1z"></path>
                  <path d="M12.207 4.207c-0.36 0.36-0.54 0.785-0.54 1.126v2.667c0 0.552-0.448 1-1 1s-1-0.448-1-1v-2.667c0-0.992 0.486-1.9 1.126-2.54s1.549-1.126 2.54-1.126h5.333c0.992 0 1.9 0.486 2.54 1.126s1.126 1.549 1.126 2.54v2.667c0 0.552-0.448 1-1 1s-1-0.448-1-1v-2.667c0-0.341-0.181-0.767-0.54-1.126s-0.785-0.54-1.126-0.54h-5.333c-0.341 0-0.767 0.181-1.126 0.54z"></path>
                  <path d="M13.333 13.667c0.552 0 1 0.448 1 1v8c0 0.552-0.448 1-1 1s-1-0.448-1-1v-8c0-0.552 0.448-1 1-1z"></path>
                  <path d="M18.667 13.667c0.552 0 1 0.448 1 1v8c0 0.552-0.448 1-1 1s-1-0.448-1-1v-8c0-0.552 0.448-1 1-1z"></path>
            </symbol>
            <symbol id="edit" viewBox="0 0 32 32">
                  <path fill="currentColor" d="M26.6 3.846c-0.363-0.141-0.751-0.206-1.141-0.19s-0.771 0.113-1.121 0.283c-0.349 0.171-0.659 0.411-0.909 0.706-0.018 0.021-0.037 0.042-0.056 0.061l-17.812 17.812-1.47 5.389 5.389-1.47 17.812-17.812c0.023-0.023 0.047-0.045 0.072-0.065 0.299-0.246 0.543-0.551 0.717-0.895s0.272-0.72 0.291-1.104c0.019-0.384-0.043-0.767-0.182-1.126s-0.352-0.686-0.625-0.96-0.602-0.488-0.965-0.629zM25.377 1.658c0.665-0.027 1.329 0.083 1.949 0.324s1.183 0.609 1.654 1.079c0.47 0.47 0.837 1.033 1.077 1.652s0.347 1.282 0.314 1.946c-0.032 0.663-0.204 1.312-0.503 1.906-0.291 0.578-0.697 1.091-1.193 1.507l-17.968 17.968c-0.123 0.123-0.276 0.212-0.444 0.258l-7.333 2c-0.346 0.095-0.716-0.004-0.97-0.258s-0.352-0.624-0.258-0.97l2-7.333c0.046-0.168 0.135-0.321 0.258-0.444l17.972-17.972c0.424-0.492 0.945-0.893 1.53-1.178 0.598-0.292 1.25-0.457 1.915-0.484z"></path>
                  <path fill="currentColor" d="M19.293 5.96c0.391-0.391 1.024-0.391 1.414 0l5.333 5.333c0.391 0.391 0.391 1.024 0 1.414s-1.024 0.391-1.414 0l-5.333-5.333c-0.391-0.391-0.391-1.024 0-1.414z"></path>
            </symbol>
            <symbol id="email" viewBox="0 0 24 24">
                  <path id="Vector (Stroke)" fill-rule="evenodd" clip-rule="evenodd" d="M4 4.75C3.30964 4.75 2.75 5.30964 2.75 6V18C2.75 18.6904 3.30964 19.25 4 19.25H20C20.6904 19.25 21.25 18.6904 21.25 18V6C21.25 5.30964 20.6904 4.75 20 4.75H4ZM1.25 6C1.25 4.48122 2.48122 3.25 4 3.25H20C21.5188 3.25 22.75 4.48122 22.75 6V18C22.75 19.5188 21.5188 20.75 20 20.75H4C2.48122 20.75 1.25 19.5188 1.25 18V6Z" fill="currentColor"></path>
                  <path id="Vector (Stroke)_2" fill-rule="evenodd" clip-rule="evenodd" d="M1.36709 6.59785C1.58924 6.24825 2.05274 6.14493 2.40234 6.36709L11.37 12.0656C11.559 12.1836 11.7773 12.2461 12.0001 12.2461C12.2229 12.2461 12.4412 12.1836 12.6301 12.0656C12.6307 12.0653 12.6313 12.0649 12.6319 12.0645L21.5978 6.36709C21.9475 6.14493 22.4109 6.24825 22.6331 6.59785C22.8553 6.94745 22.7519 7.41095 22.4023 7.6331L13.4283 13.3357C13.0002 13.6039 12.5053 13.7461 12.0001 13.7461C11.4949 13.7461 11 13.6039 10.5719 13.3357L10.5678 13.3331L1.59785 7.6331C1.24825 7.41095 1.14493 6.94745 1.36709 6.59785Z" fill="currentColor"></path>
                  <path id="Vector (Stroke)_3" fill-rule="evenodd" clip-rule="evenodd" d="M4 4.75C3.30964 4.75 2.75 5.30964 2.75 6V18C2.75 18.6904 3.30964 19.25 4 19.25H20C20.6904 19.25 21.25 18.6904 21.25 18V6C21.25 5.30964 20.6904 4.75 20 4.75H4ZM1.25 6C1.25 4.48122 2.48122 3.25 4 3.25H20C21.5188 3.25 22.75 4.48122 22.75 6V18C22.75 19.5188 21.5188 20.75 20 20.75H4C2.48122 20.75 1.25 19.5188 1.25 18V6Z" fill="currentColor"></path>
                  <path id="Vector (Stroke)_4" fill-rule="evenodd" clip-rule="evenodd" d="M1.36709 6.59785C1.58924 6.24825 2.05274 6.14493 2.40234 6.36709L11.37 12.0656C11.559 12.1836 11.7773 12.2461 12.0001 12.2461C12.2229 12.2461 12.4412 12.1836 12.6301 12.0656C12.6307 12.0653 12.6313 12.0649 12.6319 12.0645L21.5978 6.36709C21.9475 6.14493 22.4109 6.24825 22.6331 6.59785C22.8553 6.94745 22.7519 7.41095 22.4023 7.6331L13.4283 13.3357C13.0002 13.6039 12.5053 13.7461 12.0001 13.7461C11.4949 13.7461 11 13.6039 10.5719 13.3357L10.5678 13.3331L1.59785 7.6331C1.24825 7.41095 1.14493 6.94745 1.36709 6.59785Z" fill="currentColor"></path>
            </symbol>
            <symbol id="eye-close" viewBox="0 0 32 32">
                  <path d="M12.182 12.136c-1.459 1.36-2.084 3.385-1.591 5.318s2.022 3.461 3.955 3.955c1.933 0.494 3.958-0.132 5.318-1.591 0.411-0.441 0.395-1.135-0.045-1.545s-1.135-0.395-1.545 0.046c-0.816 0.875-2.022 1.251-3.182 0.954s-2.067-1.204-2.364-2.364c-0.296-1.16 0.079-2.366 0.954-3.182 0.441-0.411 0.456-1.105 0.046-1.545s-1.105-0.456-1.545-0.045z"></path>
                  <path d="M16 4.727c-0.664 0.001-1.343 0.055-2 0.136-0.598 0.074-0.984 0.629-0.909 1.227s0.584 0.984 1.182 0.909c0.569-0.071 1.154-0.090 1.727-0.091 4.119 0 7.51 1.752 10.273 4.727 0.978 1.053 1.827 2.188 2.5 3.318 0.277 0.465 0.404 0.713 0.545 1-0.577 1.155-1.235 2.266-2.045 3.273-0.378 0.469-0.288 1.122 0.182 1.5s1.122 0.333 1.5-0.136c1.018-1.265 1.904-2.665 2.591-4.136 0.131-0.282 0.122-0.578 0-0.864-0.154-0.36-0.457-0.968-0.909-1.727-0.747-1.256-1.637-2.508-2.727-3.682-3.146-3.388-7.121-5.455-11.909-5.455z"></path>
                  <path d="M7.545 7.273c-3.053 2.080-5.51 4.934-7.091 8.273-0.134 0.283-0.123 0.576 0 0.864 0.154 0.36 0.457 0.968 0.909 1.727 0.747 1.256 1.637 2.508 2.727 3.682 3.146 3.388 7.121 5.455 11.909 5.455 2.998 0.008 5.949-0.847 8.455-2.5 0.503-0.332 0.65-1.042 0.318-1.545s-1.042-0.65-1.545-0.318c-2.147 1.417-4.655 2.189-7.227 2.182-4.124 0-7.51-1.752-10.273-4.727-0.978-1.053-1.827-2.188-2.5-3.318-0.272-0.456-0.359-0.714-0.5-1 1.417-2.795 3.451-5.233 6.045-7 0.498-0.339 0.612-1.002 0.273-1.5s-1.002-0.612-1.5-0.273z"></path>
                  <path d="M0.682 0.682c-0.426 0.426-0.426 1.119 0 1.545l29.091 29.091c0.426 0.426 1.119 0.426 1.545 0s0.426-1.119 0-1.545l-29.091-29.091c-0.426-0.426-1.119-0.426-1.545 0z"></path>
            </symbol>
            <symbol id="eye-open" viewBox="0 0 32 32">
                  <path d="M3.774 16c0.118-0.234 0.292-0.559 0.522-0.947 0.494-0.83 1.245-1.936 2.269-3.039 2.049-2.207 5.135-4.347 9.434-4.347s7.385 2.141 9.434 4.347c1.024 1.103 1.775 2.209 2.269 3.039 0.231 0.388 0.404 0.713 0.522 0.947-0.118 0.234-0.291 0.559-0.522 0.947-0.494 0.83-1.245 1.936-2.269 3.039-2.049 2.207-5.135 4.347-9.434 4.347s-7.385-2.141-9.434-4.347c-1.024-1.103-1.775-2.209-2.269-3.039-0.231-0.388-0.404-0.713-0.522-0.947zM29.333 16c0.919-0.394 0.919-0.394 0.919-0.395l-0.001-0.001-0.001-0.003-0.003-0.008-0.012-0.026c-0.010-0.022-0.024-0.053-0.041-0.091-0.036-0.077-0.088-0.187-0.156-0.324-0.137-0.275-0.341-0.661-0.616-1.122-0.547-0.92-1.38-2.147-2.522-3.377-2.284-2.46-5.865-4.986-10.899-4.986s-8.615 2.526-10.899 4.986c-1.142 1.23-1.975 2.458-2.522 3.377-0.274 0.461-0.479 0.847-0.616 1.122-0.069 0.137-0.121 0.247-0.156 0.324-0.018 0.039-0.032 0.069-0.041 0.091l-0.012 0.026-0.004 0.008-0.001 0.003-0 0.001c-0 0-0 0.001 0.919 0.395l-0.919-0.394c-0.108 0.251-0.108 0.536 0 0.788l0.919-0.394c-0.919 0.394-0.919 0.394-0.919 0.395l0 0.001 0.001 0.003 0.004 0.008 0.012 0.026c0.010 0.022 0.024 0.053 0.041 0.091 0.036 0.077 0.088 0.187 0.156 0.324 0.137 0.275 0.342 0.661 0.616 1.122 0.547 0.92 1.38 2.147 2.522 3.377 2.284 2.46 5.865 4.986 10.899 4.986s8.615-2.526 10.899-4.986c1.143-1.23 1.975-2.457 2.522-3.377 0.274-0.461 0.479-0.847 0.616-1.122 0.069-0.137 0.121-0.247 0.156-0.324 0.018-0.039 0.032-0.069 0.041-0.091l0.012-0.026 0.003-0.008 0.001-0.003 0.001-0.001c0-0 0-0.001-0.919-0.395zM29.333 16l0.919 0.394c0.108-0.251 0.108-0.536 0-0.788l-0.919 0.394z"></path>
                  <path d="M16 13c-1.657 0-3 1.343-3 3s1.343 3 3 3c1.657 0 3-1.343 3-3s-1.343-3-3-3zM11 16c0-2.761 2.239-5 5-5s5 2.239 5 5c0 2.761-2.239 5-5 5s-5-2.239-5-5z"></path>
            </symbol>
            <symbol id="log-out" viewBox="0 0 32 32">
                  <path fill="currentColor" d="M19 4c0-0.552 0.448-1 1-1h5.333c0.972 0 1.905 0.386 2.593 1.074s1.074 1.62 1.074 2.593v18.667c0 0.972-0.386 1.905-1.074 2.593s-1.62 1.074-2.593 1.074h-5.333c-0.552 0-1-0.448-1-1s0.448-1 1-1h5.333c0.442 0 0.866-0.176 1.179-0.488s0.488-0.737 0.488-1.179v-18.667c0-0.442-0.176-0.866-0.488-1.178s-0.737-0.488-1.179-0.488h-5.333c-0.552 0-1-0.448-1-1z"></path>
                  <path fill="currentColor" d="M12.626 8.626c0.391-0.391 1.024-0.391 1.414 0l6.667 6.667c0.391 0.391 0.391 1.024 0 1.414l-6.667 6.667c-0.391 0.391-1.024 0.391-1.414 0s-0.391-1.024 0-1.414l5.959-5.96-5.96-5.96c-0.391-0.391-0.391-1.024 0-1.414z"></path>
                  <path fill="currentColor" d="M3 16c0-0.552 0.448-1 1-1h16c0.552 0 1 0.448 1 1s-0.448 1-1 1h-16c-0.552 0-1-0.448-1-1z"></path>
            </symbol>
            <symbol id="menu-dots" viewBox="0 0 32 32">
                  <path d="M16 15.667c-0.184 0-0.333 0.149-0.333 0.333s0.149 0.333 0.333 0.333c0.184 0 0.333-0.149 0.333-0.333s-0.149-0.333-0.333-0.333zM13.667 16c0-1.289 1.045-2.333 2.333-2.333s2.333 1.045 2.333 2.333c0 1.289-1.045 2.333-2.333 2.333s-2.333-1.045-2.333-2.333z"></path>
                  <path d="M16 6.333c-0.184 0-0.333 0.149-0.333 0.333s0.149 0.333 0.333 0.333c0.184 0 0.333-0.149 0.333-0.333s-0.149-0.333-0.333-0.333zM13.667 6.667c0-1.289 1.045-2.333 2.333-2.333s2.333 1.045 2.333 2.333c0 1.289-1.045 2.333-2.333 2.333s-2.333-1.045-2.333-2.333z"></path>
                  <path d="M16 25c-0.184 0-0.333 0.149-0.333 0.333s0.149 0.333 0.333 0.333c0.184 0 0.333-0.149 0.333-0.333s-0.149-0.333-0.333-0.333zM13.667 25.333c0-1.289 1.045-2.333 2.333-2.333s2.333 1.045 2.333 2.333c0 1.289-1.045 2.333-2.333 2.333s-2.333-1.045-2.333-2.333z"></path>
            </symbol>
            <symbol id="phone" viewBox="0 0 32 32">
                  <path d="M4.343 0.291c-0.561 0.001-1.138 0.14-1.65 0.367s-0.952 0.549-1.329 0.963c-0.378 0.414-0.692 0.89-0.871 1.421s-0.234 1.092-0.183 1.65c0.501 4.723 2.103 9.23 4.675 13.201 2.333 3.672 5.441 6.783 9.122 9.122 3.945 2.558 8.471 4.166 13.156 4.675 0.579 0.053 1.118-0.003 1.65-0.183s1.053-0.445 1.467-0.825c0.414-0.38 0.738-0.861 0.962-1.375s0.323-1.088 0.321-1.65v-4.354c0.025-0.989-0.323-1.95-0.963-2.704s-1.541-1.237-2.521-1.375c-1.335-0.176-2.643-0.495-3.896-0.962-0.72-0.27-1.492-0.344-2.246-0.183s-1.423 0.512-1.971 1.054l-1.192 1.192c-2.951-1.825-5.418-4.291-7.242-7.242l1.192-1.192c0.547-0.553 0.893-1.217 1.054-1.971s0.088-1.524-0.183-2.246c-0.467-1.251-0.788-2.57-0.963-3.896-0.138-0.979-0.587-1.883-1.329-2.521s-1.726-0.972-2.704-0.963h-4.355zM4.343 2.492h4.4c0.456-0.004 0.854 0.168 1.192 0.458s0.579 0.66 0.642 1.1c0.195 1.48 0.529 2.946 1.054 4.355 0.124 0.331 0.165 0.711 0.092 1.054s-0.258 0.668-0.504 0.917l-1.834 1.834c-0.35 0.35-0.428 0.899-0.183 1.329 2.186 3.844 5.369 7.027 9.214 9.213 0.43 0.245 0.979 0.167 1.329-0.183l1.879-1.879c0.245-0.242 0.528-0.385 0.871-0.458s0.726-0.032 1.054 0.091c1.411 0.527 2.864 0.858 4.355 1.054 0.436 0.062 0.855 0.298 1.146 0.642s0.424 0.788 0.413 1.238v4.4c0.001 0.26-0.035 0.546-0.138 0.779s-0.27 0.423-0.458 0.596c-0.188 0.172-0.4 0.331-0.642 0.413s-0.525 0.115-0.779 0.092c-4.323-0.47-8.482-1.978-12.147-4.354-3.416-2.171-6.315-5.072-8.48-8.48-2.39-3.69-3.846-7.877-4.309-12.239-0.021-0.236 0.010-0.492 0.092-0.733s0.195-0.454 0.367-0.642 0.363-0.356 0.596-0.458c0.233-0.103 0.525-0.137 0.779-0.138z"></path>
            </symbol>
            <symbol id="rotate" viewBox="0 0 32 32">
                  <path d="M16 5c-2.176 0-4.302 0.645-6.111 1.854s-3.219 2.927-4.051 4.937c-0.833 2.010-1.050 4.222-0.626 6.356s1.472 4.094 3.010 5.632c1.538 1.538 3.498 2.586 5.632 3.011s4.346 0.207 6.355-0.626c2.010-0.833 3.728-2.242 4.937-4.051s1.854-3.936 1.854-6.111c0-0.552 0.448-1 1-1s1 0.448 1 1c0 2.571-0.762 5.085-2.191 7.222s-3.459 3.804-5.834 4.788c-2.375 0.984-4.989 1.241-7.511 0.74s-4.838-1.74-6.656-3.558-3.056-4.135-3.558-6.656c-0.502-2.522-0.244-5.136 0.74-7.511s2.65-4.406 4.788-5.834c2.138-1.428 4.651-2.191 7.222-2.191 3.626 0 7.085 1.439 9.68 3.932l0.014 0.014 3.013 3.013c0.391 0.391 0.391 1.024 0 1.414s-1.024 0.391-1.414 0l-3.006-3.006c-2.232-2.142-5.196-3.368-8.287-3.368z"></path>
                  <path d="M28 3c0.552 0 1 0.448 1 1v6.667c0 0.552-0.448 1-1 1h-6.667c-0.552 0-1-0.448-1-1s0.448-1 1-1h5.667v-5.667c0-0.552 0.448-1 1-1z"></path>
            </symbol>
            <symbol id="select-arrow" viewBox="0 0 32 32">
                  <path d="M7.293 11.293c0.391-0.391 1.024-0.391 1.414 0l7.293 7.293 7.293-7.293c0.391-0.391 1.024-0.391 1.414 0s0.391 1.024 0 1.414l-8 8c-0.391 0.391-1.024 0.391-1.414 0l-8-8c-0.391-0.391-0.391-1.024 0-1.414z"></path>
            </symbol>
            <symbol id="settings" viewBox="0 0 32 32">
                  <path fill="currentColor" d="M15.682 0.364c-2.209 0-4 1.791-4 4v0.273c-0.001 0.648-0.347 1.221-0.909 1.545l-0.636 0.364c-0.56 0.323-1.256 0.325-1.818 0l-0.227-0.136c-1.879-1.085-4.349-0.409-5.455 1.5l-0.318 0.545c-1.103 1.913-0.455 4.349 1.455 5.455l0.182 0.136c0.619 0.36 0.951 0.945 0.955 1.591v0.727c0.003 0.656-0.344 1.265-0.909 1.591l-0.227 0.136c-1.895 1.097-2.557 3.543-1.455 5.455l0.318 0.545c1.106 1.909 3.543 2.557 5.455 1.455l0.182-0.091c0.595-0.343 1.301-0.325 1.864 0l0.636 0.364c0.565 0.326 0.908 0.897 0.909 1.545v0.273c0 2.209 1.791 4 4 4h0.636c2.209 0 4-1.791 4-4v-0.273c0.001-0.648 0.347-1.221 0.909-1.545l0.636-0.364c0.56-0.323 1.256-0.325 1.818 0l0.227 0.136c1.879 1.085 4.349 0.409 5.455-1.5l0.318-0.591c1.097-1.902 0.455-4.349-1.455-5.455l-0.273-0.091c-0.533-0.308-0.866-0.939-0.864-1.591v-0.727c-0.003-0.656 0.344-1.265 0.909-1.591l0.227-0.136c1.895-1.097 2.557-3.543 1.455-5.455l-0.318-0.545c-1.106-1.909-3.543-2.557-5.455-1.455l-0.182 0.091c-0.595 0.343-1.301 0.325-1.864 0l-0.636-0.364c-0.565-0.326-0.909-0.897-0.909-1.545v-0.273c0-2.209-1.791-4-4-4h-0.636zM15.682 2.545h0.636c1.004 0 1.818 0.814 1.818 1.818v0.273c0.001 1.429 0.764 2.741 2 3.455l0.636 0.364c1.241 0.716 2.762 0.715 4 0l0.182-0.091c0.901-0.519 1.997-0.231 2.5 0.636l0.318 0.545c0.5 0.867 0.231 1.997-0.637 2.5l-0.273 0.136c-1.227 0.708-1.96 2.020-1.955 3.455v0.727c-0.006 1.43 0.758 2.737 2 3.455l0.227 0.136c0.834 0.484 1.138 1.631 0.637 2.5l-0.318 0.545c-0.496 0.857-1.586 1.183-2.455 0.682l-0.273-0.136c-1.206-0.697-2.717-0.714-3.955 0l-0.636 0.364c-1.234 0.712-1.999 2.027-2 3.455v0.273c0 1.004-0.814 1.818-1.818 1.818h-0.636c-1.004 0-1.818-0.814-1.818-1.818v-0.273c-0.001-1.429-0.764-2.741-2-3.455l-0.636-0.364c-1.24-0.716-2.762-0.714-4 0l-0.182 0.091c-0.9 0.519-1.997 0.231-2.5-0.636l-0.318-0.545c-0.5-0.867-0.231-1.997 0.636-2.5l0.273-0.136c1.227-0.708 1.96-2.020 1.955-3.455v-0.727c-0.009-1.427-0.77-2.744-2-3.455l-0.136-0.136c-0.926-0.539-1.228-1.631-0.727-2.5l0.318-0.545c0.503-0.868 1.586-1.183 2.455-0.682l0.273 0.136c1.205 0.697 2.717 0.715 3.955 0l0.636-0.364c1.234-0.712 1.998-2.027 2-3.455v-0.273c0-1.004 0.814-1.818 1.818-1.818z"></path>
                  <path fill="currentColor" d="M16 10.545c-3.012 0-5.455 2.442-5.455 5.455s2.442 5.455 5.455 5.455c3.012 0 5.455-2.442 5.455-5.455s-2.442-5.455-5.455-5.455zM16 12.727c1.807 0 3.273 1.465 3.273 3.273s-1.465 3.273-3.273 3.273c-1.807 0-3.273-1.465-3.273-3.273s1.465-3.273 3.273-3.273z"></path>
            </symbol>
            <symbol id="zoom-in" viewBox="0 0 24 24">
                  <path id="Vector (Stroke)" fill-rule="evenodd" clip-rule="evenodd" d="M4.25 12C4.25 11.5858 4.58579 11.25 5 11.25H19C19.4142 11.25 19.75 11.5858 19.75 12C19.75 12.4142 19.4142 12.75 19 12.75H5C4.58579 12.75 4.25 12.4142 4.25 12Z" fill="currentColor"></path>
                  <path id="Vector (Stroke)_2" fill-rule="evenodd" clip-rule="evenodd" d="M12 4.25C12.4142 4.25 12.75 4.58579 12.75 5V19C12.75 19.4142 12.4142 19.75 12 19.75C11.5858 19.75 11.25 19.4142 11.25 19V5C11.25 4.58579 11.5858 4.25 12 4.25Z" fill="currentColor"></path>
            </symbol>
            <symbol id="zoom-out" viewBox="0 0 32 32">
                  <path d="M5.667 16c0-0.552 0.448-1 1-1h18.667c0.552 0 1 0.448 1 1s-0.448 1-1 1h-18.667c-0.552 0-1-0.448-1-1z"></path>
            </symbol>
      </defs>
</svg>
