<svg width="80" height="80" viewBox="0 0 80 80" fill="none" xmlns="http://www.w3.org/2000/svg">
<path d="M63.3333 10H16.6667C12.9848 10 10 12.9848 10 16.6667V63.3333C10 67.0152 12.9848 70 16.6667 70H63.3333C67.0152 70 70 67.0152 70 63.3333V16.6667C70 12.9848 67.0152 10 63.3333 10Z" stroke="#878684" stroke-width="1.5" stroke-linecap="round" stroke-linejoin="round"/>
<path d="M30.0026 36.6663C33.6845 36.6663 36.6693 33.6816 36.6693 29.9997C36.6693 26.3178 33.6845 23.333 30.0026 23.333C26.3207 23.333 23.3359 26.3178 23.3359 29.9997C23.3359 33.6816 26.3207 36.6663 30.0026 36.6663Z" stroke="#878684" stroke-width="1.5" stroke-linecap="round" stroke-linejoin="round"/>
<path d="M70 50.0003L59.7133 39.7136C58.4631 38.4638 56.7678 37.7617 55 37.7617C53.2322 37.7617 51.5369 38.4638 50.2867 39.7136L20 70.0003" stroke="#878684" stroke-width="1.5" stroke-linecap="round" stroke-linejoin="round"/>
</svg>
