<svg width="60" height="80" viewBox="0 0 60 80" fill="none" xmlns="http://www.w3.org/2000/svg">
<g id="logo short">
<rect width="60" height="80" fill="#151514"/>
<g id="Img">
<path id="Subtract" fill-rule="evenodd" clip-rule="evenodd" d="M10.0516 33.4477L10.0161 32.582L9.87402 31.8167C10.5586 31.4696 11.0445 31.3397 11.7944 31.1394C11.8698 31.1192 11.9478 31.0984 12.029 31.0765C11.8612 30.2965 11.7934 29.7982 11.6738 28.906V26.4093L12.3961 25.5688C12.3162 25.1572 12.3144 24.9751 12.3961 24.7407C12.7326 24.4958 12.83 24.2959 12.7276 23.7496C13.2372 23.3099 13.358 23.0217 13.3197 22.4573C13.4779 21.8011 13.6502 21.5634 14.0893 21.3407C14.5058 20.9969 14.7659 20.9153 15.2497 20.8514C15.1613 20.4689 15.224 20.2762 15.5457 19.9732C15.6715 18.8814 15.8246 18.314 16.9311 17.7526C16.91 16.4888 18.0941 17.1508 17.8191 17.5644C17.8191 17.5644 18.4901 17.6548 18.7782 18.1289C19.3392 18.8956 19.4082 19.355 19.4413 20.1489C20.0818 20.7528 20.5025 20.9595 21.3003 21.2278C21.5225 21.4232 21.5832 21.5195 21.6318 21.6795C22.0365 21.8743 22.1636 22.0102 22.2357 22.2942C22.992 22.4783 23.3689 22.6615 23.7987 23.3983C24.174 23.5038 24.3671 23.5879 24.592 23.9127C25.0281 24.0424 25.3039 24.2213 25.8353 24.678L25.6222 25.2677L25.2314 24.7658C24.7612 24.6251 24.5134 24.4953 24.1184 24.1134C23.5149 23.9511 23.3335 23.6751 23.0502 23.244C23.0244 23.2047 22.9977 23.1642 22.9698 23.1223C22.9192 22.9354 22.6152 22.8568 22.2072 22.7512C22.1113 22.7264 22.0096 22.7001 21.9042 22.6706C21.751 22.6059 21.6539 22.5076 21.4542 22.1813C21.0918 22.0552 20.9505 21.821 20.7083 21.3784C19.6519 21.1016 19.331 20.7299 18.9558 19.9105C17.8501 20.2107 17.2559 20.2154 16.2325 20.0108C16.1431 20.3375 16.0711 20.4824 15.8536 20.6382C15.8491 21.3418 15.33 21.6106 14.4399 22.0717L14.3735 22.106C13.9676 23.108 13.7388 23.6179 13.3197 24.0381C13.3168 24.5272 13.2244 24.7503 12.8697 25.0418C12.9557 25.8144 12.7128 26.1752 12.1001 26.6603C12.1051 28.3349 12.2078 29.2747 12.3961 30.951L12.7987 30.813L12.4553 26.8986C12.6126 26.7804 12.7019 26.742 12.8697 26.8986L13.2486 30.5997L14.1604 30.3363L13.9117 25.3555C14.6368 24.399 15.1278 24.1644 16.2206 24.5274C16.8444 23.553 17.2785 23.3306 18.2928 23.8499C19.4173 22.2638 20.0897 22.3798 21.3358 23.7496C21.3191 23.8835 21.2919 23.9529 21.1227 24.0381C19.7645 22.9284 19.1663 22.8838 18.5533 24.4145L18.1744 24.5274C17.1191 23.8643 16.7707 24.1492 16.339 25.1673L16.1141 25.23C15.3534 24.6973 14.9998 24.8257 14.4564 25.5688L14.7524 30.1732L16.86 29.6839C17.0758 29.7654 17.3114 29.7505 17.8073 29.6839L17.7126 26.9112C17.7969 26.5346 17.9094 26.4225 18.1744 26.3215L25.5274 26.8359V27.526L18.7545 26.9112C18.3717 26.8921 18.2342 26.924 18.0441 27.0116L18.1744 29.5835H18.4349C18.4353 28.911 18.4507 28.5382 18.6717 27.9274C18.928 27.4622 19.1154 27.4006 19.5479 27.7518C19.8441 28.3721 19.8853 28.7836 19.8321 29.5835H19.986C20.0005 29.0628 20.0118 28.772 20.1754 28.3038C20.3594 27.9013 20.4985 27.7428 20.8622 27.6765C21.3183 27.6717 21.4914 27.8148 21.691 28.2662L21.7502 29.7466L22.6028 29.847C22.6722 29.4166 22.6861 29.1557 22.6501 28.6426C22.5399 28.1052 22.4485 28.0479 22.2002 28.6426C22.1124 28.6685 22.0991 28.6209 22.0936 28.5045C22.1633 28.2005 22.2387 28.0525 22.4962 27.8647C22.8721 27.8632 23.0288 27.9597 23.2303 28.3038C23.3322 28.8773 23.3258 29.2192 23.3161 29.7487L23.3132 29.9097L27.3627 30.2861V30.8507C21.8465 30.173 19.2551 29.9272 17.1916 30.1732L17.3573 31.3525L16.7653 31.478L16.6824 29.9097C14.1877 30.8592 12.7883 31.3742 10.2884 32.1931C10.332 32.7631 10.3884 33.0021 10.5371 33.2846L10.0516 33.4477ZM16.3164 19.5093C17.3051 19.5243 17.846 19.4886 18.7793 19.3211C18.7813 18.9094 18.6793 18.6806 18.1399 18.2798C17.5244 18.0603 17.233 18.1615 16.79 18.6561C16.5138 18.9465 16.404 19.1305 16.3164 19.5093ZM19.4053 29.5847H18.7422C18.7467 29.1261 18.7612 28.8683 18.8606 28.4054C19.1237 27.7477 19.2311 27.8999 19.4053 28.4054V29.5847ZM20.377 29.6078L21.3242 29.6831V28.7171C21.1546 28.16 21.0012 28.0608 20.5546 28.5163C20.4518 28.8398 20.4022 29.0461 20.377 29.6078Z" fill="white"/>
<path id="Vector 35" d="M33.4039 46.1423C32.9708 47.3629 32.6963 48.036 32.3975 49.304C32.432 49.4042 32.4751 49.4182 32.5751 49.4043L32.7172 49.0405C33.0716 48.4019 33.2351 47.9988 33.5105 47.2589C34.0117 46.0452 34.3256 45.3866 35.0143 44.2981C35.5153 43.4856 35.7932 43.0253 36.5772 42.642C36.73 42.514 36.724 42.3905 36.6601 42.1401C35.9024 42.2462 35.5478 42.6488 34.9314 43.4449C34.196 44.3912 33.8613 44.9816 33.4039 46.1423Z" fill="white"/>
<path id="Vector 34" d="M16.7665 54.5108L14.6826 55.3388C14.6223 55.4585 14.6539 55.4975 14.801 55.527C15.3742 55.5056 15.7554 55.4199 16.5771 55.0879C17.3243 54.8639 17.751 54.6801 18.519 54.2975L17.2639 55.1632L15.4049 56.5182C14.4751 57.2048 13.9741 57.5477 13.1788 57.961C12.7107 58.134 12.4989 58.3656 12.1724 58.9145C11.8823 59.6585 11.7044 60.0072 11.3672 60.5329C11.4153 60.8238 11.4515 60.9614 11.6277 60.8967L12.1724 60.0562C12.3797 59.3844 12.4975 59.0101 12.9302 58.6635C13.5443 58.3723 13.8768 58.1672 14.4458 57.71L16.5771 56.2045L19.6083 53.8584L21.6804 52.3403L20.0701 53.9462C19.5396 54.3886 19.2774 54.6526 18.8979 55.1632L17.4178 56.6562C16.7904 57.3732 16.4392 57.7554 15.8193 58.2119L14.801 59.5418C14.1732 59.8903 13.8198 60.0522 13.1788 60.0562C13.0487 59.8707 12.9684 59.7744 12.7881 59.6421C12.6397 59.5929 12.6227 59.7342 12.6933 60.2443C12.8484 60.6569 12.9828 60.7857 13.3209 60.8089C13.9524 60.7468 14.3078 60.6064 14.9431 60.2443L16.731 58.0864C17.6425 57.3369 18.07 56.8506 18.8268 55.9787L19.9399 54.7241L21.2305 53.3691C21.7295 52.803 22.0124 52.4891 22.5922 52.0141L23.6934 50.9477L25.0906 49.5802C25.6935 49.0125 26.0542 48.7297 26.7601 48.3256L28.9033 46.6946L30.2768 45.6532L31.6148 44.6245L32.5976 44.0097L33.7816 43.2444C34.0104 43.1068 34.1526 43.0556 34.2316 42.6422C34.1354 42.5659 34.1233 42.516 34.2316 42.4038L33.6159 42.5795C32.8855 42.8876 32.5396 43.1424 31.97 43.6584L29.4598 45.6031L27.3403 47.2968C26.1234 48.1422 25.4623 48.6369 24.3446 49.5802L21.7988 51.6754L19.4425 53.1433C18.3034 53.8171 17.7077 54.1301 16.7665 54.5108Z" fill="white"/>
<path id="Vector 33" d="M16.4346 51.2872C15.5926 52.6624 15.2546 53.4727 14.6348 54.913C14.6877 55.0747 14.7245 55.127 14.8124 55.1012L15.0255 54.6746L15.7833 53.2946L16.6477 51.7765C17.1118 51.3023 17.3851 51.0879 17.9146 50.8606C18.6454 50.5729 19.0532 50.4205 19.8092 50.02L21.7629 48.64C22.3582 48.126 22.7107 47.8915 23.385 47.5986L24.9007 46.8082L26.0966 46.2311C26.4557 46.0555 27.2499 45.6691 27.553 45.5285C27.8561 45.388 28.3581 45.1605 28.5713 45.0643C28.8166 44.9551 28.9455 44.8913 28.9975 44.7256C28.5404 44.7648 27.9667 45.0139 27.0557 45.378L23.8468 46.6577C22.5274 47.2141 21.8902 47.6246 20.8393 48.4392C19.6146 49.27 18.9395 49.5706 17.737 50.0828C17.2141 50.2408 16.9313 50.5606 16.4346 51.2872Z" fill="white"/>
<path id="Vector 32" d="M38.423 50.0708C37.8427 50.3333 37.6259 50.5259 37.3691 50.9239C37.3577 51.0991 37.3954 51.0903 37.5112 50.9615C37.9242 50.6541 38.132 50.5646 38.423 50.673L39.6189 51.2125C40.4237 51.5465 40.7877 51.5529 41.4187 51.5261L43.029 51.2626L44.4499 51.3756C44.7916 51.3544 44.9345 51.2963 45.0893 51.0995C45.1714 50.9617 45.114 50.9291 44.9472 50.8988L44.142 50.673C43.2806 50.4094 42.8015 50.3905 41.9515 50.5099C41.0814 50.6856 40.6264 50.6902 39.9031 50.4597C39.3643 50.1902 39.0585 50.0506 38.423 50.0708Z" fill="white"/>
<path id="Vector 29" d="M51.2238 66.8059C50.4633 67.0112 50.1418 67.1996 49.6372 67.5838C49.5887 67.6573 49.603 67.6813 49.6845 67.6967C50.093 67.5992 50.3304 67.5612 50.7976 67.5838L52.5145 67.7343C52.8188 67.647 52.7804 67.4931 52.5145 67.1196C52.0768 66.7456 51.7815 66.7257 51.2238 66.8059Z" fill="white"/>
<path id="Vector 30" d="M51.9111 61.1729C51.223 61.4913 50.8461 61.6798 50.1823 62.026C50.1522 62.1415 50.1936 62.1549 50.3126 62.1389C51.4662 61.9441 52.3531 61.9057 52.4913 61.4112C52.3238 61.2345 52.2159 61.155 51.9111 61.1729Z" fill="white"/>
<path id="Vector 31" d="M50.5959 60.5834C50.2837 60.8636 50.0816 60.9931 49.7078 61.2107C49.6268 61.3098 49.7233 61.3057 49.8932 61.2987L49.8973 61.2985L50.5959 61.0099C50.9611 60.8023 51.1602 60.6694 51.484 60.345C51.4979 60.1313 51.453 60.0507 51.1761 60.0564L50.5959 60.5834Z" fill="white"/>
<path id="Vector 28" d="M12.9379 63.1556C11.7636 63.2738 11.104 63.3402 10.1473 63.6696C10.1418 63.7289 10.1637 63.7431 10.2183 63.7574L14.2205 63.6947C15.2269 63.758 15.7814 63.7634 16.7426 63.6947H18.6134C19.4304 63.8184 19.8934 63.8219 20.7329 63.6947L23.0773 63.4689C23.9264 63.6659 24.3937 63.7135 25.2087 63.6947C26.3228 63.7374 26.9936 63.7105 28.4885 63.3308C29.289 62.9729 29.7267 62.7882 30.3002 62.7537L31.7329 62.553L33.1301 62.1892L34.4089 61.7751L35.8061 61.7124C36.5829 61.639 36.8947 61.5485 37.4164 61.3737L39.3938 60.9847C40.0202 60.7709 40.3162 60.6038 40.6845 60.1692L41.833 59.3286L42.4961 58.5257L43.1237 57.936C43.2362 57.7487 43.2154 57.6593 43.0644 57.522C42.6206 57.3369 42.3715 57.2679 41.9159 57.1958L40.1516 56.8571L38.9676 56.5183L37.8782 56.0039H38.3992L39.4649 56.2674C40.0146 56.5133 40.3395 56.6346 40.8976 56.7818C41.4847 56.9597 41.8143 57.016 42.4014 56.97C42.8558 56.8285 43.121 56.7535 43.3368 56.5183C43.6972 55.9839 43.238 55.8354 42.4406 55.5775L42.4014 55.5648C41.4705 55.4381 41.0261 55.2681 40.3648 54.8121C40.5727 54.3529 40.6061 54.1313 40.1516 53.9589C39.5086 54.0435 39.1554 54.0571 38.5768 53.846C37.9057 53.5683 37.6229 53.3263 37.1204 52.8925C36.6036 52.2465 36.4493 51.8817 36.6113 51.2239L37.0494 49.2667C37.2824 48.7702 37.3962 48.4998 37.2033 48.2003C37.0518 47.9103 36.9406 47.7782 36.706 47.5981C36.5234 47.5047 36.4603 47.5043 36.4573 47.6482L36.706 48.0121C36.8887 48.4653 36.838 48.641 36.6468 48.9028L36.3745 50.0069L35.889 51.5626C35.9043 52.3046 36.035 52.6957 36.5165 53.3567C36.7941 53.733 37.0222 53.9307 37.4875 54.2726C38.0461 54.7151 38.4094 54.7982 39.0978 54.8121C39.4521 54.6857 39.648 54.6277 39.974 54.6239C39.7759 54.9271 39.762 55.0972 40.0688 55.4017C40.3879 55.6713 40.5879 55.8109 41.0515 56.0039C41.5489 56.2712 41.8303 56.389 42.3422 56.5183C42.1743 56.6219 41.987 56.6244 41.466 56.5183C40.9036 56.4569 40.6291 56.3388 40.1516 56.1043L38.7071 55.5648C37.8883 55.4956 37.5365 55.5321 37.4875 56.0039C37.5035 56.3638 37.655 56.5515 38.1624 56.8571C38.5644 57.1655 38.7987 57.2881 39.2399 57.3965C39.8087 57.6284 40.1123 57.7024 40.6371 57.7729L40.6793 57.7816C41.3587 57.9204 41.7524 58.0009 42.3422 57.936L41.466 58.5257L40.2582 59.3286L38.5176 60.3072C37.5506 60.6348 37.0121 60.7003 36.0548 60.7464C34.9813 60.7603 34.5565 60.938 33.805 61.2607C32.6471 61.6006 32.1648 61.602 31.3422 61.5618L28.8556 62.0511C27.9852 62.4197 27.4681 62.542 26.5348 62.7286C25.5512 62.8517 24.9994 62.8073 24.0128 62.4401C23.0452 62.3325 22.5463 62.3286 21.7512 62.4401L19.5843 62.7035L17.3109 62.8039L17.9858 61.8755C18.3747 61.4346 18.5925 61.1746 18.9805 60.5833C19.2587 60.2479 19.4107 60.048 19.5843 59.3914C19.601 59.0379 19.7055 58.8708 20.129 58.6512C20.4997 58.4563 20.6867 58.2876 20.9934 57.8984L21.9998 56.7818L23.5747 55.0379L24.9363 53.708L26.1915 52.6165C26.3634 52.3309 26.4846 52.1601 26.2743 52.0394C26.1089 52.0819 26.068 52.0627 26.1915 51.8637L25.3508 52.4659C24.7334 52.8828 24.4437 53.1454 23.9891 53.6453L22.2722 55.477L20.3658 57.4844C19.4393 58.1512 18.9852 58.5128 19.1581 58.9774C18.7367 60.0146 18.4296 60.3922 17.9148 61.1604C17.525 61.807 17.3661 62.1657 17.1215 62.8039L12.9417 63.1552L12.9379 63.1556Z" fill="white"/>
<path id="Vector 27" d="M23.3868 35.7424C22.5018 35.6742 22.0189 35.6936 21.1608 35.7424C21.0284 35.8434 21.1223 35.8667 21.3029 35.9055L22.5935 36.0937C23.1624 36.1507 23.4814 36.2031 24.0499 36.3571C24.5384 36.5003 24.7943 36.611 25.2103 36.8841L26.2996 37.4487C26.5276 37.757 26.6763 37.8773 27.1048 37.6745C27.2042 37.9279 27.373 38.0642 27.7679 38.3018L28.7743 38.7158L29.7808 39.3431C29.7808 39.3431 30.7991 39.8951 30.8938 40.0081C30.9885 40.121 31.9477 40.7483 31.9477 40.7483L32.8357 41.2752C33.4711 41.2443 33.8117 41.1338 34.4105 40.8863H35.8551C36.5884 41.1258 36.9938 41.1992 37.7022 41.1748L39.0876 40.8863L40.994 40.2841C41.421 40.0945 41.6799 39.9519 41.9886 39.983L42.1307 39.1424C42.0597 39.5429 41.6082 39.7506 40.2006 40.0959L42.9951 37.6619L43.9068 36.1815C43.4982 36.6863 43.2585 36.9009 42.8174 37.1726L40.994 38.6029C40.2709 39.1875 39.9035 39.5558 39.3126 40.2841C38.8135 40.4115 38.5222 40.4369 37.9746 40.397C36.9798 40.138 36.4206 40.0435 35.417 40.0959C34.5287 40.1031 34.0734 40.3444 33.2383 40.6479C32.7493 40.4669 32.5115 40.3036 32.0897 40.0081C32.0897 40.0081 30.7873 38.8914 29.7808 38.5778C28.7743 38.2642 28.1774 37.969 27.6968 37.4487C27.8452 37.278 27.7797 37.2063 27.5429 37.0974C26.803 37.1503 26.4689 36.8591 25.8497 36.4324C24.8881 35.8716 24.3487 35.7788 23.3868 35.7424Z" fill="white"/>
<path id="Vector 26" d="M42.0709 15.4551C42.1193 15.314 42.1182 15.1941 42.1064 14.9658L42.4498 15.9695L42.1301 15.8064C42.0674 15.9132 41.9005 15.9087 41.5618 15.9068C41.2748 15.92 41.1253 15.9524 40.8987 16.095C41.4457 16.3447 41.7712 16.4836 41.8815 16.7599C41.9515 17.0809 41.9857 17.3046 42.0827 17.3998C42.2695 17.6616 42.3418 17.8222 42.3077 18.1776L42.1301 18.7046L42.4617 19.1813L42.0946 19.3695L41.7867 18.9931C41.694 18.6861 41.7576 18.53 41.8815 18.2529C41.9231 17.9995 41.6565 17.9643 41.5854 17.5629C41.5144 17.1614 41.5717 16.9795 41.4197 16.8728C41.0405 16.7175 40.8364 16.6197 40.5079 16.3961C40.2725 15.9911 40.2232 15.7775 40.7921 15.5053C41.272 15.4258 41.5527 15.4169 42.0709 15.4551Z" fill="white"/>
<path id="Subtract_2" fill-rule="evenodd" clip-rule="evenodd" d="M34.3855 14.2373C34.4056 14.4018 34.4032 14.4787 34.3855 14.6011C34.7445 14.4724 34.9465 14.4419 35.3091 14.5133C35.7336 14.6577 35.705 14.7447 35.5341 14.9022H34.9302C34.7111 14.8824 34.6035 14.8867 34.4565 14.9399L34.2434 15.4668L34.4565 15.8808C34.628 16.0263 34.7068 16.1562 34.8354 16.4203C35.1474 16.5089 35.3171 16.5876 35.6051 16.8218L35.6057 16.8222C35.9629 17.0335 36.1634 17.1521 36.5405 17.0476C36.5566 17.0434 36.5723 17.0393 36.5879 17.0353C36.9557 16.9393 37.176 16.8818 37.6417 16.9222H38.8258C39.1507 17.0281 39.2786 16.9602 39.406 16.596C39.5888 16.19 39.7011 15.9772 39.9388 15.655L39.7967 15.0403C40.0859 14.7664 40.2525 14.6542 40.5664 14.6137C40.6997 14.662 40.7305 14.6975 40.6848 14.7768L40.3532 15.5797L39.7493 16.6587C39.5189 17.1876 39.3333 17.3737 38.8258 17.3613H37.7838C37.3372 17.3411 37.1243 17.3711 36.7892 17.4742H36.3629L36.9431 19.331C37.0652 19.934 37.195 20.1984 37.6299 20.4225C38.1576 20.4157 38.4574 20.4216 39.0507 20.5731L40.1519 20.824C40.5554 20.8848 40.7429 20.854 41.04 20.7362C41.1023 20.842 41.0301 20.9104 40.5545 21.0624C40.32 21.2107 40.1455 21.208 39.8204 21.1753C39.4869 21.3719 39.2629 21.4449 38.7902 21.5015L37.5114 21.3007L36.6708 20.9495C36.6354 20.9433 36.6018 20.9377 36.5697 20.9323C36.346 20.8951 36.1936 20.8697 35.9958 20.7362L35.8538 19.9458L34.8947 20.3598L34.3973 20.5731L34.7999 21.3007L35.3564 22.2292L36.5405 22.6934C36.7753 22.8063 36.909 22.8938 37.1562 23.1576L37.8548 23.5967C37.9015 23.8781 37.8363 23.9376 37.7009 24.0233L36.8602 23.3959L35.8538 22.8941L35.0723 22.6306L34.717 22.0033L34.3145 21.2506L34.0184 20.7362C33.9978 20.4901 34.0266 20.3767 34.2789 20.2971L34.942 20.021C34.8556 20.0313 34.7712 20.0413 34.6888 20.051C33.3614 20.2078 32.5435 20.3043 31.8161 20.5731L29.6847 20.824C28.3387 21.8731 27.6594 22.4703 26.9614 23.5967C26.7671 24.251 26.5432 24.5206 26.0852 24.9517V26.5074C26.3784 26.5833 26.5188 26.6797 26.7009 27.0092C26.9178 27.172 27.0955 27.2107 27.4587 27.235C27.7434 27.2652 27.8509 27.4492 27.9323 28.1133V30.3465L30.9399 30.6727C31.4884 29.8979 32.0414 29.5378 32.8489 29.012C32.9684 28.9342 33.0936 28.8527 33.2251 28.7657L35.8538 27.0092C37.0311 26.2659 37.7422 25.9822 39.0507 25.579C40.3391 25.0472 41.093 24.8027 42.5082 24.4875C42.4035 24.2251 42.3472 24.0779 42.3188 23.81C42.3283 23.4812 42.3705 23.3068 42.7214 23.0697L42.9819 22.9694C43.0096 23.1358 42.9493 23.187 42.8279 23.2705C42.6582 23.3855 42.6271 23.4977 42.7214 23.81C42.9859 24.0562 43.1685 24.1152 43.562 24.0985C43.9256 24.0802 44.0923 24.0124 44.2488 23.672C44.3484 23.2546 44.4461 23.1038 44.8408 23.2705C45.1658 23.4231 45.1474 23.6623 45.054 24.1362C44.7694 24.5487 44.5893 24.6773 44.2488 24.8137C43.9059 24.9941 43.6859 24.9754 43.2897 24.9266L42.7214 24.638L41.0281 25.1399L39.7849 25.6919L37.7838 26.5576L35.759 27.7996L34.125 29.0417L32.6212 30.3214L30.8688 32.128C30.833 32.8081 30.5547 32.9383 29.9926 33.1066L28.3112 34.0476L28.9269 34.5871C28.9714 34.5795 29.0141 34.5721 29.0554 34.5649C29.4733 34.4923 29.7436 34.4453 30.1939 34.5871C30.4243 34.5768 30.6623 34.5987 30.9452 34.6248C31.2964 34.6572 31.7168 34.696 32.2779 34.6874C33.2067 34.5062 33.7321 34.4761 34.6815 34.5996C35.1081 34.6356 35.3509 34.64 35.8182 34.4867C36.1229 34.3627 36.2832 34.332 36.5405 34.3863L37.1917 33.2948C37.5283 32.6161 37.7835 32.3069 38.3285 31.852C38.7334 31.1422 38.9623 30.7461 39.6546 30.3339C40.1007 30.1756 40.3625 30.0357 40.8624 29.6439L41.928 29.0542C42.0897 29.0004 42.179 28.9954 42.3306 29.1044C42.2049 29.4279 42.0199 29.5833 41.7524 29.808C41.7104 29.8433 41.6663 29.8803 41.6202 29.9199C41.0161 30.6428 40.657 30.9499 39.9506 31.1871C39.4731 31.4015 39.2182 31.7372 38.7996 32.2888C38.7772 32.3182 38.7544 32.3483 38.731 32.3789L37.9969 33.2195L37.0378 34.2232L38.0798 33.7465C38.5329 33.6285 38.8842 33.7813 39.5244 34.0852C40.0323 34.225 40.3027 34.3883 40.7203 35.0638C40.8256 35.5752 40.6461 35.6614 40.223 35.7287C40.0762 35.6444 40.0085 35.5396 39.927 35.2018C39.9678 34.9167 39.6394 34.7646 38.7666 34.4992C38.5094 34.2475 38.2841 34.2273 37.7719 34.3487L37.0378 34.5996C37.1147 34.6135 37.1863 34.6255 37.2544 34.6369C37.6387 34.7014 37.9101 34.747 38.3758 35.0011C38.7747 35.3037 38.9391 35.5887 39.2284 36.1051C39.6684 36.1251 39.9126 36.2112 40.3414 36.5693C40.4792 36.9305 40.4835 37.1824 40.4124 37.6859C40.2963 37.9479 40.2316 37.972 40.1164 37.9996C40.0983 37.7668 40.0663 37.6689 39.998 37.5103V37.0461C39.6636 36.7265 39.4667 36.6996 39.1099 36.745C38.7705 36.5913 38.666 36.361 38.5099 36.017C38.4899 35.973 38.4691 35.9271 38.4469 35.8793C38.3055 35.5229 38.1861 35.3461 37.8548 35.1014L36.7892 34.7376C36.4607 34.5954 36.3071 34.5823 36.1142 34.7376C35.6287 35.0382 35.2914 35.0677 34.6342 35.0011H33.3909L31.9463 35.4904C30.9295 35.5375 30.2963 35.3881 29.2613 35.1439C29.2025 35.1301 29.1424 35.1159 29.0809 35.1014C28.9988 35.7884 28.8877 36.1078 28.6072 36.5944H28.4888C28.622 36.1999 28.6707 35.9726 28.6428 35.5406L28.6072 34.9258L27.6837 34.2232C27.6303 34.1351 27.5861 34.0596 27.5478 33.9941C27.3146 33.5957 27.298 33.5674 26.7364 33.3199C26.3044 33.1538 25.8328 33.1923 24.8893 33.3199C24.4422 33.4264 24.1427 33.418 23.5039 33.2572C23.4689 33.2535 23.4347 33.2499 23.4014 33.2464C22.8671 33.1897 22.5377 33.1547 22.2369 33.4077L23.4329 33.7214L24.8893 33.8092C25.235 33.867 25.3881 33.9371 25.6115 34.1103C25.4488 34.2127 25.1621 34.2295 24.4748 34.2232L23.3973 34.2985L22.0712 34.035L20.6621 33.7214C20.0609 33.5421 19.7173 33.5268 19.0992 33.5834L18.2821 33.7214L20.0109 34.0852L21.4555 34.3612C22.1102 34.5833 22.4271 34.7204 22.8882 34.9885C22.8646 35.1495 22.8021 35.2062 22.6277 35.2645L21.7278 34.9007L20.4727 34.6247L18.9452 34.2734L17.8914 34.0852C17.5367 33.9947 17.4613 33.9031 17.4888 33.6837C17.6414 33.445 17.8602 33.3389 18.7084 33.2446C19.2008 33.092 19.5046 33.0857 20.0819 33.1819L22.0356 33.5834C21.9186 33.0868 21.9938 32.8558 22.5685 32.5922C23.1591 32.5048 23.5673 32.5741 24.3327 32.7553L25.7773 32.6299C26.3597 32.6248 26.6898 32.6754 27.2929 33.0062C27.626 33.2326 27.7452 33.3999 27.9205 33.7214L29.4242 32.7553L27.4587 32.6299L25.2326 32.4417L23.1013 32.2409L20.8989 32.0151L18.2821 31.8771H17.0152C16.368 32.355 15.8558 32.4498 14.9194 32.5922L12.5276 33.1819L10.6212 33.6837L12.1013 33.8092L13.5103 34.0852C13.5083 33.689 13.5293 33.4851 14.0669 33.5332C14.5068 33.546 14.6173 33.8218 14.6944 34.5494L14.7773 35.3273C15.3965 35.7767 15.6533 35.9094 15.843 35.7915C15.7712 35.7131 15.7017 35.6415 15.6361 35.5739C15.3528 35.2818 15.1423 35.0648 15.1325 34.7C15.0127 34.3669 14.9824 34.1832 15.1325 33.8719C15.298 33.7304 15.4157 33.7208 15.6653 33.8092L15.9495 34.0852C15.797 34.2023 15.6889 34.2009 15.4877 34.173C15.3764 34.3508 15.5346 34.6709 15.9022 35.3273C16.1357 35.574 16.2738 35.6784 16.5534 35.7037C16.5502 35.5008 16.5067 35.4086 16.3876 35.2645C16.1551 35.0359 16.0528 34.8899 15.9969 34.5494C16.0059 34.2304 16.0313 34.0679 16.1627 33.8468C16.3283 33.7902 16.4298 33.7841 16.6363 33.8468L17.3586 34.4616C17.6123 34.6858 17.7564 34.763 18.0216 34.7C18.0831 34.7692 18.061 34.7958 17.998 34.838C17.7842 34.9552 17.6649 34.9761 17.4533 34.9634L16.8139 34.5494L16.3876 34.1981L16.3521 34.6498C16.6934 34.8594 16.8241 35.0143 16.9323 35.3649L18.1045 35.5155L18.815 35.4151C18.9931 35.5351 19.0643 35.6136 19.0992 35.7915L18.4834 35.9295L17.5954 36.0048L16.6718 35.9295C16.5691 36.009 16.5024 36.0391 16.3521 36.0424L15.7127 36.218C15.4344 36.1862 15.2825 36.1383 15.026 35.9295C14.8102 35.8353 14.6506 35.7147 14.4813 35.5155C14.2209 35.6222 14.0921 35.5961 13.8892 35.4151L13.5459 34.4616C13.3799 34.6818 13.1004 34.6281 12.5276 34.4616L11.3435 34.173L10.4199 34.0225C10.2091 34.0052 10.1392 33.8395 10.041 33.4579L10.5383 33.2446L13.1788 32.3288L16.8139 31.438L17.3586 31.3376C19.2452 31.2979 20.3111 31.3344 22.2369 31.576L26.3693 31.9649L30.5018 32.2409V31.2122L27.2929 30.8483C27.4279 29.7923 27.382 29.0847 27.3078 27.9412C27.3029 27.8666 27.298 27.7903 27.2929 27.7118L25.5287 27.5111C25.4737 26.6506 25.5015 26.1606 25.6115 25.2779L25.8365 24.6882L26.5351 23.6469C26.557 22.9937 26.7387 22.6888 27.3995 22.2668L29.0927 20.7362C29.6661 20.3385 30.0932 20.2351 30.9399 20.1465L30.9574 20.1398C31.8547 19.7977 32.3632 19.6039 33.4382 19.6949C33.4994 19.6921 33.5586 19.6894 33.6162 19.6868C34.3814 19.6526 34.8614 19.6312 35.759 19.469C35.8336 19.3149 35.9138 19.1995 35.9961 19.0812C36.0821 18.9576 36.1702 18.8309 36.2563 18.6535C36.3487 18.3142 36.2351 18.0206 35.9958 17.4742C35.7309 17.4205 35.5759 17.2967 35.2972 17.0476C34.994 17.0032 34.8308 16.9735 34.6105 16.872C34.4771 16.664 34.3646 16.5596 34.1685 16.3776L34.1605 16.3701L33.8171 15.655C33.8228 15.3625 33.899 15.206 34.1605 14.9399C34.0468 14.798 34.0975 14.6415 34.1793 14.3894C34.1848 14.3726 34.1904 14.3553 34.1961 14.3377L34.3855 14.2373ZM14.3273 35.1148C14.2678 34.6287 14.2623 34.3824 14.3509 34.0358C14.1934 33.902 14.1034 33.882 13.9365 33.9229C14.0034 34.3764 14.1194 34.6409 14.3251 35.1098L14.3273 35.1148Z" fill="white"/>
<path id="Vector 22" d="M37.0873 9.28233C36.6032 9.60373 36.3519 9.8265 35.915 10.2484L36.0098 10.6749L36.6728 10.3864L37.2886 10.0853L37.9043 10.148L38.6384 10.2484C39.059 10.3278 39.1498 10.406 39.3488 10.5369L40.0474 11.0137L40.8408 11.6034L41.1131 11.4277L40.0474 10.6749L39.3488 10.2484L38.4845 10.0225L37.7503 9.92218C37.4537 9.88043 37.3018 9.88857 37.0873 10.0225L36.0098 10.4742L36.7913 10.0225C37.0687 9.84968 37.2292 9.77224 37.4899 9.53325L38.2121 9.62108L39.112 9.80927L39.929 10.0225L40.8408 10.4742L41.6815 11.2019L42.3682 11.9421L43.055 12.8078C43.3544 13.2059 43.518 13.4299 43.576 13.8617L44.0259 13.9746L43.8246 13.1089L43.1379 12.0801L42.084 10.8757C41.5356 10.3664 41.2484 10.1532 40.746 9.80927C40.2196 9.55543 39.8826 9.43799 39.2068 9.28233L38.0819 9.04396C37.6184 8.96012 37.3944 8.99881 37.0873 9.28233Z" fill="white"/>
<path id="Vector 21" d="M35.6048 11.2773C35.1718 11.6687 34.9665 11.9156 34.4799 12.3061C34.5084 12.66 34.6535 12.8868 34.847 12.8832L34.6457 13.1592C34.1902 13.2613 33.991 13.336 34.0537 13.5983C33.7759 14.0251 33.8701 14.1637 34.2194 14.3385L34.3615 14.2256C34.7959 14.0128 35.0257 13.9696 35.3798 14.188C35.4753 14.1999 35.5247 14.1868 35.6048 14.1127L35.7824 14.188C35.8545 14.1473 35.8839 14.1128 35.8771 13.9872C35.7813 13.8853 35.6969 13.8506 35.3798 13.912C35.2053 13.7849 35.1148 13.7712 34.9536 13.7489L34.2668 13.9747L34.3615 13.5983C34.7001 13.5804 34.8434 13.5294 34.9536 13.3097C35.2101 13.2973 35.3349 13.3048 35.4509 13.3976L35.6877 13.7865C35.8634 13.8431 35.9619 13.8631 36.1376 13.7865L36.1357 13.7905C36.0788 13.9059 36.0463 13.9719 36.0666 14.1127C36.1235 14.2333 36.1629 14.2944 36.3034 14.3385V14.74C36.4594 14.9857 36.5486 15.1167 36.7415 15.2168V15.5931H35.4509C34.8173 15.3378 34.5115 15.2598 34.2668 15.5179L33.9826 15.957L34.4799 15.8692L34.9536 15.957C35.4087 16.1434 35.6677 16.1833 36.1376 16.0699H37.4401H38.7189L39.9622 15.5931L40.5897 15.1038L40.7207 14.7902L40.5897 14.6145L39.2991 15.3297L37.9256 15.4049L36.9783 15.5179C37.102 15.2288 36.8932 14.9843 36.5757 14.5644C36.6102 14.279 36.5466 14.145 36.2087 13.9747L36.3034 13.6485L35.9008 13.523L35.6048 13.1592H34.9536L35.1193 12.7828L35.5337 12.8832L36.1376 13.0337C36.2611 12.9384 36.3277 12.8829 36.3508 12.7075L36.0666 12.7828L36.017 12.7698C35.5582 12.649 35.2861 12.5774 34.847 12.5695L34.7759 12.419L35.1193 12.0426L35.9245 11.0891H35.6995L36.0192 10.6249L35.9008 10.2109L36.0666 9.65884C36.3825 9.11548 36.5163 8.75837 37.1441 8.59242L39.1096 8.74297L40.9568 8.59242C41.4103 8.75712 41.6835 8.91911 42.3422 9.83448L43.2657 10.8005L43.7986 12.4064C44.0202 13.0726 44.1286 13.4386 44.0472 13.9621L43.5262 13.8367L42.2001 12.4064C41.8514 11.9814 41.6555 11.7435 41.1226 11.4278L40.8502 11.5784C40.8204 11.9888 40.8955 12.2131 41.1226 12.6072C41.4225 13.1329 41.5919 13.401 41.9041 13.661L42.0817 14.8906L42.4487 15.9821C42.9113 16.0911 43.1649 16.5437 43.621 17.588C43.1332 18.0507 43.007 18.3297 43.0644 18.8677L42.0817 19.357C42.4155 19.9027 42.3284 20.3778 43.0644 20.8625C43.7152 21.4018 44.17 21.6201 45.0537 21.9415C45.9602 22.2216 46.4363 22.5057 47.1495 23.5474L48.6769 25.3414C49.1054 26.6003 48.9977 27.2048 48.4401 28.1769C48.1936 29.728 47.8311 30.1045 47.1495 30.6986C46.7706 31.8265 46.3982 32.267 45.5392 32.8189C44.8957 33.7339 44.5667 34.5877 43.9762 36.0683L42.3895 38.6027C42.1372 39.1251 42.031 39.4259 41.9869 39.9953L42.2711 41.4883C42.3892 42.2736 42.3369 42.6446 41.8804 43.0942L42.1527 43.5458C42.5337 44.0141 42.738 44.2823 42.9224 44.8757C43.1501 45.7462 43.3753 46.2283 43.8459 47.0838C43.7751 47.8066 43.918 48.1557 44.8761 48.5642L46.5101 49.7687C47.378 50.3768 47.8002 50.7756 47.9665 52.0144C48.2569 52.8995 48.4947 53.1931 49.1387 53.1185C49.4235 53.7687 49.5086 54.1175 49.3519 54.6742L50.0623 56.0292C50.8898 56.6935 51.1561 57.3564 51.4595 58.7893L52.241 59.5797C52.7736 60.4895 52.7812 61.0784 52.5252 62.2018L52.8212 64.824L53.1527 67.8601L53.1532 67.8747C53.1691 68.392 53.1782 68.6866 52.6081 69.0395C51.5009 69.3079 50.9194 69.1566 49.9202 68.5878C49.5008 68.4889 49.3715 68.308 49.4229 67.6468L49.565 65.3133C49.6698 64.143 49.7524 63.4448 49.565 62.7915C49.482 62.4557 48.8765 62.2853 47.9665 61.976L45.6102 60.4705L43.2657 59.3915L43.917 59.9812L45.6102 61.0351C46.3296 61.4359 46.7172 61.6757 47.2324 62.2771C48.2207 62.856 48.9148 63.1957 48.819 63.6572H45.9773H44.0117L42.2356 64.1339L38.9676 64.2092L37.6177 64.1339L33.1064 64.686L30.0633 65.0373H25.706L21.1473 65.4387L18.5305 65.2756L14.777 65.652L13.2732 65.7649L11.2603 66.5553L9.62627 66.8564L8.03962 67.6092H5.03208L3.96641 67.421L3.13756 66.6933V66.2919H4.14402C4.8094 66.2206 5.18865 66.0646 5.87277 65.652C6.77643 64.7556 7.13695 64.0474 7.76728 62.7664L9.76836 58.7893L11.58 54.7871C12.6738 51.9752 13.2926 50.4208 14.6586 48.7273C15.2994 46.8462 15.6874 45.8284 16.8254 44.5871L16.8409 44.509C17.073 43.3312 17.2078 42.6472 17.9266 41.7141L18.8739 38.7658L20.721 36.9215C20.8044 36.5733 20.8074 36.3745 20.6263 36.0056C19.7866 36.3528 19.3203 36.6102 18.5068 37.2979L17.6306 40.5222C16.2571 42.7846 16.246 44.1982 15.0612 46.3938C13.8764 48.5893 13.6994 49.0193 12.7759 50.534C12.1789 53.1225 11.6813 54.1123 10.763 55.7908C10.4234 56.3223 8.58232 60.09 8.59613 59.9937C8.60995 59.8975 7.09961 63.5324 5.62412 64.8365C4.14862 66.1406 1.95033 64.6165 2.00086 66.5679L3.00732 67.6092L4.0493 68.1863L7.43574 68.5125L8.99872 67.8099L14.4218 66.1037H17.8674L21.2302 65.8528L24.8298 65.6897L27.9083 65.9657H31.1764L35.1667 65.4262H39.1925L42.2948 64.9745L45.5392 64.5103H48.9611C48.6722 65.4616 48.642 66.1442 48.6296 67.4085C48.3125 68.7079 48.8846 69.1489 50.5715 69.6793C51.695 70.1476 52.3142 70.1043 53.4014 69.5413C53.9724 69.0734 54.0853 68.7024 53.9461 67.8601C53.3048 65.5578 53.1668 64.5157 53.1527 62.917C53.3498 61.5599 53.3883 60.799 52.9751 59.4417C51.8566 58.361 51.5969 57.7571 51.4595 56.6816C50.5596 56.2328 49.194 54.3002 49.9084 53.9465C50.6227 53.5929 48.8546 52.2528 48.452 51.2491C48.0494 50.2454 46.6069 48.9407 44.8761 47.8617C44.0541 46.7596 43.7515 46.1062 43.5499 44.8757C43.174 44.0812 42.915 43.6743 42.2711 43.0942C42.5551 42.7892 42.6511 42.5767 42.6974 42.1156C43.061 40.9697 42.1647 40.071 42.2711 39.7444C42.3775 39.4177 43.7194 37.3781 44.7458 35.8927C44.7118 35.1229 46.3072 32.5585 47.3271 31.9658C48.347 31.3731 48.9157 29.6881 49.3637 27.4241C49.5352 25.1627 48.9785 24.4622 47.7889 23.3843C47.8891 23.2789 46.3799 21.8522 45.0537 21.4647C43.7274 21.0772 42.4472 19.5548 42.7092 19.7459C43.4894 19.4198 43.6787 19.1236 43.5262 18.3658L43.9407 17.9393C44.2692 17.7269 44.4227 17.568 44.438 16.9481C44.3659 16.2096 44.2636 15.8133 44.0472 15.1164C44.3991 14.4215 44.5592 14.0088 44.6629 13.1592C44.3783 12.8071 44.316 12.5759 44.3314 12.1179C44.1906 11.3288 44.0562 10.9079 43.6802 10.2109C42.4954 9.02923 41.8544 8.25741 40.4595 8.06549C38.6241 8.12296 37.3254 7.78852 36.5402 8.24113C36.2034 8.71458 36.0279 8.91536 35.7232 9.23227C35.5769 9.50992 35.5867 9.9654 35.6037 10.7507V10.7507L35.6048 10.8005C35.3422 11.1547 35.4225 11.2076 35.6048 11.2773Z" fill="white"/>
<path id="Vector 23" d="M37.3347 10.6004C36.9488 10.6064 36.7453 10.6215 36.494 10.7509C36.4304 10.8941 36.468 10.9805 36.6006 11.1399L37.0387 11.6292L36.9913 12.0181C37.0293 12.067 37.0535 12.0709 37.0979 12.0683C37.405 11.9791 37.5589 11.8969 37.7965 11.6919C38.0262 11.7018 38.1558 11.7219 38.3885 11.7923C38.5726 11.7083 38.6683 11.6593 38.7201 11.5413C38.5106 11.2899 38.3637 11.211 38.0925 11.0897C37.8276 10.9984 37.6905 10.9828 37.4531 10.9768L37.2045 11.2277C37.1453 11.2377 37.1228 11.2179 37.0979 11.1399L37.2045 10.8388H37.5005C37.7671 10.8049 37.9187 10.7969 38.1991 10.8388L38.7201 11.0897C38.9306 10.9897 38.7805 10.8818 38.507 10.6882C38.0505 10.5862 37.7936 10.5784 37.3347 10.6004Z" fill="white"/>
</g>
</g>
</svg>
